%TF.GenerationSoftware,KiCad,Pcbnew,5.1.8-db9833491~87~ubuntu18.04.1*%
%TF.CreationDate,2020-11-08T14:36:31-03:00*%
%TF.ProjectId,DCI_TP,4443495f-5450-42e6-9b69-6361645f7063,1.0*%
%TF.SameCoordinates,Original*%
%TF.FileFunction,Copper,L2,Bot*%
%TF.FilePolarity,Positive*%
%FSLAX46Y46*%
G04 Gerber Fmt 4.6, Leading zero omitted, Abs format (unit mm)*
G04 Created by KiCad (PCBNEW 5.1.8-db9833491~87~ubuntu18.04.1) date 2020-11-08 14:36:31*
%MOMM*%
%LPD*%
G01*
G04 APERTURE LIST*
%TA.AperFunction,ComponentPad*%
%ADD10C,1.879600*%
%TD*%
%TA.AperFunction,ViaPad*%
%ADD11C,0.800000*%
%TD*%
%TA.AperFunction,ViaPad*%
%ADD12C,0.600000*%
%TD*%
%TA.AperFunction,ViaPad*%
%ADD13C,0.700000*%
%TD*%
%TA.AperFunction,Conductor*%
%ADD14C,0.250000*%
%TD*%
G04 APERTURE END LIST*
D10*
%TO.P,JP3,7*%
%TO.N,/AGND*%
X168821000Y-96114000D03*
%TO.P,JP3,6*%
%TO.N,/GPIO4*%
X168821000Y-98654000D03*
%TO.P,JP3,5*%
%TO.N,/GPIO5*%
X168821000Y-101194000D03*
%TO.P,JP3,4*%
%TO.N,/VCO*%
X168821000Y-103734000D03*
%TO.P,JP3,3*%
%TO.N,/GPIO7*%
X168821000Y-106274000D03*
%TO.P,JP3,2*%
%TO.N,/GPIO6*%
X168821000Y-108814000D03*
%TO.P,JP3,1*%
%TO.N,/LINEIN*%
X168821000Y-111354000D03*
%TD*%
%TO.P,JP2,10*%
%TO.N,/CS*%
X158661000Y-88493600D03*
%TO.P,JP2,9*%
%TO.N,/SCLK*%
X156121000Y-88493600D03*
%TO.P,JP2,8*%
%TO.N,/SI*%
X153581000Y-88493600D03*
%TO.P,JP2,7*%
%TO.N,/SO*%
X151041000Y-88493600D03*
%TO.P,JP2,6*%
%TO.N,/GPIO0*%
X148501000Y-88493600D03*
%TO.P,JP2,5*%
%TO.N,/GPIO1*%
X145961000Y-88493600D03*
%TO.P,JP2,4*%
%TO.N,/LEFT*%
X143421000Y-88493600D03*
%TO.P,JP2,3*%
%TO.N,/GBUF*%
X140881000Y-88493600D03*
%TO.P,JP2,2*%
%TO.N,/RIGHT*%
X138341000Y-88493600D03*
%TO.P,JP2,1*%
%TO.N,/VCC*%
X135801000Y-88493600D03*
%TD*%
%TO.P,JP1,10*%
%TO.N,/MICP*%
X135801000Y-121514000D03*
%TO.P,JP1,9*%
%TO.N,/MICN*%
X138341000Y-121514000D03*
%TO.P,JP1,8*%
%TO.N,/RESET*%
X140881000Y-121514000D03*
%TO.P,JP1,7*%
%TO.N,/DREQ*%
X143421000Y-121514000D03*
%TO.P,JP1,6*%
%TO.N,/GPIO2*%
X145961000Y-121514000D03*
%TO.P,JP1,5*%
%TO.N,/GPIO3*%
X148501000Y-121514000D03*
%TO.P,JP1,4*%
%TO.N,/BSYNC*%
X151041000Y-121514000D03*
%TO.P,JP1,3*%
%TO.N,/TX*%
X153581000Y-121514000D03*
%TO.P,JP1,2*%
%TO.N,/RX*%
X156121000Y-121514000D03*
%TO.P,JP1,1*%
%TO.N,GND*%
X158661000Y-121514000D03*
%TD*%
D11*
%TO.N,/AVDD*%
X140240000Y-104507000D03*
X137500000Y-108000000D03*
X132246000Y-105939000D03*
%TO.N,/IOVDD*%
X151946000Y-102789000D03*
X146491000Y-109733000D03*
X144687000Y-112966000D03*
X145742000Y-101173000D03*
D12*
X150842000Y-97715200D03*
D11*
%TO.N,GND*%
X155213000Y-101403000D03*
%TO.N,/CVDD*%
X145052000Y-109668000D03*
X146843000Y-114562000D03*
D13*
X150096000Y-114562000D03*
D11*
X150406000Y-109955000D03*
X149987000Y-99239100D03*
%TO.N,/LINEIN*%
X137691000Y-114000000D03*
%TO.N,/RX*%
X147814000Y-100691000D03*
%TO.N,/TX*%
X149165000Y-97824700D03*
%TO.N,/BSYNC*%
X151108000Y-107140000D03*
%TO.N,/GPIO3*%
X148501000Y-109646000D03*
%TO.N,/GPIO2*%
X146558000Y-106790000D03*
D12*
%TO.N,/DREQ*%
X147297000Y-110373000D03*
D11*
%TO.N,/CS*%
X146206000Y-104634000D03*
%TO.N,/SCLK*%
X153493000Y-91335800D03*
%TO.N,/GPIO0*%
X144464000Y-95724400D03*
%TO.N,/LEFT*%
X142000000Y-108000000D03*
X143180000Y-105484000D03*
%TO.N,/GBUF*%
X139942000Y-103177000D03*
X133475000Y-100544000D03*
%TO.N,/RIGHT*%
X136986000Y-100227000D03*
X139859000Y-102166000D03*
%TO.N,/VCC*%
X151459000Y-93981700D03*
%TO.N,/GPIO6*%
X154132000Y-108214000D03*
%TO.N,/GPIO7*%
X153187000Y-108952000D03*
%TO.N,/VCO*%
X154067000Y-104874000D03*
%TO.N,/GPIO5*%
X152203000Y-100079000D03*
%TO.N,/GPIO4*%
X142946000Y-98282400D03*
%TO.N,/PWR_FLAG*%
X146546000Y-103632000D03*
X145092000Y-101937000D03*
%TO.N,Net-(C8-Pad1)*%
X152444000Y-104317000D03*
X155548000Y-105841000D03*
%TO.N,Net-(C9-Pad1)*%
X143420000Y-104090000D03*
X136000000Y-104000000D03*
%TO.N,Net-(C10-Pad1)*%
X133822000Y-103744000D03*
X132738000Y-96525400D03*
X137186000Y-96525400D03*
X137186000Y-99205600D03*
%TD*%
D14*
%TO.N,/AVDD*%
X132246000Y-105939000D02*
X132680400Y-105939000D01*
X132680400Y-105939000D02*
X135349200Y-103270200D01*
X135349200Y-103270200D02*
X136883200Y-103270200D01*
X136883200Y-103270200D02*
X138120000Y-104507000D01*
X137500000Y-108000000D02*
X138120000Y-107380000D01*
X138120000Y-107380000D02*
X138120000Y-104507000D01*
X138120000Y-104507000D02*
X140240000Y-104507000D01*
%TO.N,/IOVDD*%
X146491000Y-109733000D02*
X146491000Y-111161000D01*
X146491000Y-111161000D02*
X144687000Y-112966000D01*
X146491000Y-109733000D02*
X147311000Y-108913000D01*
X147311000Y-108913000D02*
X147311000Y-102742000D01*
X147311000Y-102742000D02*
X145742000Y-101173000D01*
X151946000Y-102789000D02*
X151162000Y-102006000D01*
X151162000Y-102006000D02*
X151163000Y-102005000D01*
X151163000Y-102005000D02*
X151163000Y-98288700D01*
X151163000Y-98288700D02*
X150716000Y-97841600D01*
X145742000Y-101173000D02*
X147516000Y-99398100D01*
X147516000Y-99398100D02*
X147516000Y-99306900D01*
X147516000Y-99306900D02*
X147663000Y-99160200D01*
X147663000Y-99160200D02*
X147663000Y-98301000D01*
X147663000Y-98301000D02*
X148893000Y-97070700D01*
X148893000Y-97070700D02*
X149945000Y-97070700D01*
X149945000Y-97070700D02*
X150716000Y-97841600D01*
X150842000Y-97715200D02*
X150716000Y-97841600D01*
%TO.N,GND*%
X158661000Y-121514000D02*
X152306000Y-115159000D01*
X152306000Y-115159000D02*
X152306000Y-105205000D01*
X152306000Y-105205000D02*
X151703000Y-104602000D01*
X151703000Y-104602000D02*
X151703000Y-104020000D01*
X151703000Y-104020000D02*
X152170000Y-103553000D01*
X152170000Y-103553000D02*
X153063000Y-103553000D01*
X153063000Y-103553000D02*
X155213000Y-101403000D01*
%TO.N,/CVDD*%
X145052000Y-109668000D02*
X143961000Y-110758000D01*
X143961000Y-110758000D02*
X143961000Y-113325000D01*
X143961000Y-113325000D02*
X145198000Y-114562000D01*
X145198000Y-114562000D02*
X146843000Y-114562000D01*
X150406000Y-109955000D02*
X150406000Y-114252000D01*
X150406000Y-114252000D02*
X150096000Y-114562000D01*
X149987000Y-99239100D02*
X149987000Y-109536000D01*
X149987000Y-109536000D02*
X150406000Y-109955000D01*
%TO.N,/LINEIN*%
X142151000Y-116284700D02*
X139866300Y-114000000D01*
X139866300Y-114000000D02*
X137691000Y-114000000D01*
X142151000Y-116284700D02*
X142151000Y-115379000D01*
X168821000Y-111354000D02*
X168821000Y-113156000D01*
X168821000Y-113156000D02*
X158725000Y-123251000D01*
X158725000Y-123251000D02*
X143346000Y-123251000D01*
X143346000Y-123251000D02*
X142151000Y-122056000D01*
X142151000Y-122056000D02*
X142151000Y-116284700D01*
%TO.N,/RX*%
X147814000Y-100691000D02*
X149371000Y-102248000D01*
X149371000Y-102248000D02*
X149371000Y-114862000D01*
X149371000Y-114862000D02*
X149771000Y-115262000D01*
X149771000Y-115262000D02*
X149771000Y-122056000D01*
X149771000Y-122056000D02*
X150506000Y-122791000D01*
X150506000Y-122791000D02*
X154844000Y-122791000D01*
X154844000Y-122791000D02*
X156121000Y-121514000D01*
%TO.N,/TX*%
X153581000Y-121514000D02*
X151856000Y-119789000D01*
X151856000Y-119789000D02*
X151856000Y-105392000D01*
X151856000Y-105392000D02*
X150712000Y-104248000D01*
X150712000Y-104248000D02*
X150712000Y-98930100D01*
X150712000Y-98930100D02*
X149607000Y-97824700D01*
X149607000Y-97824700D02*
X149165000Y-97824700D01*
%TO.N,/BSYNC*%
X151041000Y-121514000D02*
X151131000Y-121424000D01*
X151131000Y-121424000D02*
X151131000Y-107163000D01*
X151131000Y-107163000D02*
X151108000Y-107140000D01*
%TO.N,/GPIO3*%
X148501000Y-121514000D02*
X148501000Y-109646000D01*
%TO.N,/GPIO2*%
X146558000Y-106790000D02*
X143511000Y-109837000D01*
X143511000Y-109837000D02*
X143511000Y-119064000D01*
X143511000Y-119064000D02*
X145961000Y-121514000D01*
%TO.N,/DREQ*%
X143421000Y-121514000D02*
X144703000Y-122796000D01*
X144703000Y-122796000D02*
X146507000Y-122796000D01*
X146507000Y-122796000D02*
X147231000Y-122072000D01*
X147231000Y-122072000D02*
X147231000Y-115475000D01*
X147231000Y-115475000D02*
X147569000Y-115137000D01*
X147569000Y-115137000D02*
X147569000Y-110644000D01*
X147569000Y-110644000D02*
X147297000Y-110373000D01*
%TO.N,/CS*%
X144337000Y-100050000D02*
X144337000Y-102766000D01*
X144337000Y-102766000D02*
X146206000Y-104634000D01*
X158661000Y-88493600D02*
X158661000Y-89695500D01*
X158661000Y-89695500D02*
X152360000Y-95996700D01*
X152360000Y-95996700D02*
X148390000Y-95996700D01*
X148390000Y-95996700D02*
X144337000Y-100050000D01*
X144337000Y-99426900D02*
X144337000Y-100050000D01*
%TO.N,/SCLK*%
X156121000Y-88493600D02*
X156121000Y-88707400D01*
X156121000Y-88707400D02*
X153493000Y-91335800D01*
%TO.N,/GPIO0*%
X148501000Y-88493600D02*
X148501000Y-91687900D01*
X148501000Y-91687900D02*
X144464000Y-95724400D01*
%TO.N,/LEFT*%
X143089000Y-105484000D02*
X142000000Y-106573000D01*
X142000000Y-106573000D02*
X142000000Y-108000000D01*
X143089000Y-105484000D02*
X142998000Y-105484000D01*
X143180000Y-105484000D02*
X143089000Y-105484000D01*
X143421000Y-88493600D02*
X142695000Y-89219700D01*
X142695000Y-89219700D02*
X142695000Y-97507400D01*
X142695000Y-97507400D02*
X142220000Y-97982000D01*
X142220000Y-97982000D02*
X142220000Y-104524000D01*
X142220000Y-104524000D02*
X143180000Y-105484000D01*
%TO.N,/GBUF*%
X139942000Y-103177000D02*
X137483000Y-103177000D01*
X137483000Y-103177000D02*
X137033000Y-102727000D01*
X137033000Y-102727000D02*
X136977000Y-102727000D01*
X136977000Y-102727000D02*
X136538000Y-102287000D01*
X136538000Y-102287000D02*
X136164000Y-102287000D01*
X136164000Y-102287000D02*
X136032000Y-102419000D01*
X136032000Y-102419000D02*
X134157000Y-100544000D01*
X134157000Y-100544000D02*
X133475000Y-100544000D01*
X140881000Y-88493600D02*
X133475000Y-95899900D01*
X133475000Y-95899900D02*
X133475000Y-100544000D01*
%TO.N,/RIGHT*%
X139859000Y-100227000D02*
X139859000Y-102166000D01*
X138341000Y-88493600D02*
X139646000Y-87188100D01*
X139646000Y-87188100D02*
X141393000Y-87188100D01*
X141393000Y-87188100D02*
X142151000Y-87945800D01*
X142151000Y-87945800D02*
X142151000Y-97414500D01*
X142151000Y-97414500D02*
X139859000Y-99706500D01*
X139859000Y-99706500D02*
X139859000Y-100227000D01*
X136986000Y-100227000D02*
X139859000Y-100227000D01*
%TO.N,/VCC*%
X144691000Y-89646600D02*
X144691000Y-87965400D01*
X144691000Y-87965400D02*
X144550000Y-87824600D01*
X144550000Y-87824600D02*
X143463000Y-86737700D01*
X143463000Y-86737700D02*
X137557000Y-86737700D01*
X137557000Y-86737700D02*
X135801000Y-88493600D01*
X144550000Y-87824600D02*
X145146000Y-87228400D01*
X145146000Y-87228400D02*
X149089000Y-87228400D01*
X149089000Y-87228400D02*
X149771000Y-87910400D01*
X149771000Y-87910400D02*
X149771000Y-92293400D01*
X149771000Y-92293400D02*
X151459000Y-93981700D01*
%TO.N,/GPIO6*%
X154132000Y-108214000D02*
X168221000Y-108214000D01*
X168221000Y-108214000D02*
X168821000Y-108814000D01*
%TO.N,/GPIO7*%
X168821000Y-106274000D02*
X170098000Y-107550000D01*
X170098000Y-107550000D02*
X170098000Y-109364000D01*
X170098000Y-109364000D02*
X169378000Y-110084000D01*
X169378000Y-110084000D02*
X154319000Y-110084000D01*
X154319000Y-110084000D02*
X153187000Y-108952000D01*
%TO.N,/VCO*%
X168821000Y-103734000D02*
X155207000Y-103734000D01*
X155207000Y-103734000D02*
X154067000Y-104874000D01*
%TO.N,/GPIO5*%
X168821000Y-101194000D02*
X167706000Y-100079000D01*
X167706000Y-100079000D02*
X152203000Y-100079000D01*
%TO.N,/GPIO4*%
X168821000Y-98654000D02*
X161435000Y-91267900D01*
X161435000Y-91267900D02*
X161435000Y-89477900D01*
X161435000Y-89477900D02*
X159185000Y-87228400D01*
X159185000Y-87228400D02*
X158068000Y-87228400D01*
X158068000Y-87228400D02*
X157391000Y-87905600D01*
X157391000Y-87905600D02*
X157391000Y-89080400D01*
X157391000Y-89080400D02*
X151231000Y-95240500D01*
X151231000Y-95240500D02*
X145988000Y-95240500D01*
X145988000Y-95240500D02*
X142946000Y-98282400D01*
%TO.N,/PWR_FLAG*%
X146546000Y-103632000D02*
X145092000Y-102178000D01*
X145092000Y-102178000D02*
X145092000Y-101937000D01*
%TO.N,Net-(C8-Pad1)*%
X155548000Y-105841000D02*
X153967000Y-105841000D01*
X153967000Y-105841000D02*
X152444000Y-104317000D01*
%TO.N,Net-(C9-Pad1)*%
X143906000Y-105871000D02*
X143906000Y-107158100D01*
X143906000Y-107158100D02*
X142325000Y-108739100D01*
X142325000Y-108739100D02*
X137201500Y-108739100D01*
X137201500Y-108739100D02*
X136000000Y-107537600D01*
X136000000Y-107537600D02*
X136000000Y-104000000D01*
X143420000Y-104090000D02*
X143906000Y-104576000D01*
X143906000Y-104576000D02*
X143906000Y-105871000D01*
%TO.N,Net-(C10-Pad1)*%
X133822000Y-103744000D02*
X132738000Y-102660000D01*
X132738000Y-102660000D02*
X132738000Y-96525400D01*
X137186000Y-96525400D02*
X137186000Y-99205600D01*
%TD*%
M02*
