%TF.GenerationSoftware,KiCad,Pcbnew,5.1.8-db9833491~87~ubuntu18.04.1*%
%TF.CreationDate,2020-11-08T14:36:31-03:00*%
%TF.ProjectId,DCI_TP,4443495f-5450-42e6-9b69-6361645f7063,1.0*%
%TF.SameCoordinates,Original*%
%TF.FileFunction,Paste,Top*%
%TF.FilePolarity,Positive*%
%FSLAX46Y46*%
G04 Gerber Fmt 4.6, Leading zero omitted, Abs format (unit mm)*
G04 Created by KiCad (PCBNEW 5.1.8-db9833491~87~ubuntu18.04.1) date 2020-11-08 14:36:31*
%MOMM*%
%LPD*%
G01*
G04 APERTURE LIST*
%ADD10C,0.100000*%
%ADD11R,1.100000X1.900000*%
%ADD12R,1.143000X0.254000*%
%ADD13R,0.254000X1.143000*%
%ADD14R,0.550000X1.200000*%
%ADD15R,0.700000X0.900000*%
%ADD16R,0.900000X0.700000*%
%ADD17R,0.800000X0.800000*%
%ADD18R,0.635000X1.270000*%
%ADD19R,1.600000X1.400000*%
%ADD20R,1.400000X1.600000*%
G04 APERTURE END LIST*
D10*
%TO.C,U$12*%
G36*
X153850000Y-97833600D02*
G01*
X153450000Y-97833600D01*
X153450000Y-98583600D01*
X153850000Y-98583600D01*
X153850000Y-97833600D01*
G37*
G36*
X152550000Y-97833600D02*
G01*
X152150000Y-97833600D01*
X152150000Y-98583600D01*
X152550000Y-98583600D01*
X152550000Y-97833600D01*
G37*
G36*
X153838200Y-96215200D02*
G01*
X153508000Y-96215200D01*
X153508000Y-96901000D01*
X153838200Y-96901000D01*
X153838200Y-96215200D01*
G37*
G36*
X153165100Y-96215200D02*
G01*
X152834900Y-96215200D01*
X152834900Y-96901000D01*
X153165100Y-96901000D01*
X153165100Y-96215200D01*
G37*
G36*
X152492000Y-96215200D02*
G01*
X152161800Y-96215200D01*
X152161800Y-96901000D01*
X152492000Y-96901000D01*
X152492000Y-96215200D01*
G37*
%TO.C,U$2*%
G36*
X130450000Y-106694000D02*
G01*
X130450000Y-107094000D01*
X131200000Y-107094000D01*
X131200000Y-106694000D01*
X130450000Y-106694000D01*
G37*
G36*
X130450000Y-107994000D02*
G01*
X130450000Y-108394000D01*
X131200000Y-108394000D01*
X131200000Y-107994000D01*
X130450000Y-107994000D01*
G37*
G36*
X128831600Y-106705800D02*
G01*
X128831600Y-107036000D01*
X129517400Y-107036000D01*
X129517400Y-106705800D01*
X128831600Y-106705800D01*
G37*
G36*
X128831600Y-107378900D02*
G01*
X128831600Y-107709100D01*
X129517400Y-107709100D01*
X129517400Y-107378900D01*
X128831600Y-107378900D01*
G37*
G36*
X128831600Y-108052000D02*
G01*
X128831600Y-108382200D01*
X129517400Y-108382200D01*
X129517400Y-108052000D01*
X128831600Y-108052000D01*
G37*
%TO.C,JP4*%
G36*
X133030800Y-108143000D02*
G01*
X135469200Y-108143000D01*
X135469200Y-105857000D01*
X133030800Y-105857000D01*
X133030800Y-108143000D01*
G37*
%TD*%
D11*
%TO.C,Q1*%
X159811000Y-101884000D03*
X157511000Y-105584000D03*
X157511000Y-101884000D03*
X159811000Y-105584000D03*
%TD*%
D12*
%TO.C,U2*%
X141711000Y-106484000D03*
X141711000Y-105984000D03*
X141711000Y-105484000D03*
X141711000Y-104984000D03*
X141711000Y-104484000D03*
X141711000Y-103984000D03*
X141711000Y-103484000D03*
X141711000Y-102984000D03*
X141711000Y-102484000D03*
X141711000Y-101984000D03*
X141711000Y-101484000D03*
X141711000Y-100984000D03*
D13*
X143211000Y-99484000D03*
X143711000Y-99484000D03*
X144211000Y-99484000D03*
X144711000Y-99484000D03*
X145211000Y-99484000D03*
X145711000Y-99484000D03*
X146211000Y-99484000D03*
X146711000Y-99484000D03*
X147211000Y-99484000D03*
X147711000Y-99484000D03*
X148211000Y-99484000D03*
X148711000Y-99484000D03*
D12*
X150211000Y-100984000D03*
X150211000Y-101484000D03*
X150211000Y-101984000D03*
X150211000Y-102484000D03*
X150211000Y-102984000D03*
X150211000Y-103484000D03*
X150211000Y-103984000D03*
X150211000Y-104484000D03*
X150211000Y-104984000D03*
X150211000Y-105484000D03*
X150211000Y-105984000D03*
X150211000Y-106484000D03*
D13*
X148711000Y-107984000D03*
X148211000Y-107984000D03*
X147711000Y-107984000D03*
X147211000Y-107984000D03*
X146711000Y-107984000D03*
X146211000Y-107984000D03*
X145711000Y-107984000D03*
X145211000Y-107984000D03*
X144711000Y-107984000D03*
X144211000Y-107984000D03*
X143711000Y-107984000D03*
X143211000Y-107984000D03*
%TD*%
D14*
%TO.C,U1*%
X157711000Y-111323900D03*
X159611000Y-111323900D03*
X159611000Y-113924100D03*
X158661000Y-113924100D03*
X157711000Y-113924100D03*
%TD*%
D15*
%TO.C,R17*%
X166931000Y-110084000D03*
X165631000Y-110084000D03*
%TD*%
%TO.C,R16*%
X166931000Y-105004000D03*
X165631000Y-105004000D03*
%TD*%
%TO.C,R15*%
X166931000Y-99923600D03*
X165631000Y-99923600D03*
%TD*%
%TO.C,R14*%
X166931000Y-97383600D03*
X165631000Y-97383600D03*
%TD*%
%TO.C,R13*%
X138991000Y-112000000D03*
X137691000Y-112000000D03*
%TD*%
D16*
%TO.C,R12*%
X141000000Y-113350000D03*
X141000000Y-114650000D03*
%TD*%
D15*
%TO.C,R11*%
X149121000Y-112624000D03*
X150421000Y-112624000D03*
%TD*%
%TO.C,R10*%
X149121000Y-111354000D03*
X150421000Y-111354000D03*
%TD*%
%TO.C,R9*%
X137691000Y-110000000D03*
X138991000Y-110000000D03*
%TD*%
%TO.C,R8*%
X128801000Y-111000000D03*
X130101000Y-111000000D03*
%TD*%
D16*
%TO.C,R7*%
X134531000Y-101844000D03*
X134531000Y-100544000D03*
%TD*%
%TO.C,R6*%
X135801000Y-101844000D03*
X135801000Y-100544000D03*
%TD*%
%TO.C,R5*%
X143421000Y-110704000D03*
X143421000Y-112004000D03*
%TD*%
%TO.C,R4*%
X144961000Y-93650000D03*
X144961000Y-92350000D03*
%TD*%
%TO.C,R3*%
X142000000Y-95650000D03*
X142000000Y-94350000D03*
%TD*%
%TO.C,R2*%
X151000000Y-95463600D03*
X151000000Y-96763600D03*
%TD*%
%TO.C,R1*%
X156121000Y-103084000D03*
X156121000Y-104384000D03*
%TD*%
D17*
%TO.C,LED1*%
X131250000Y-111000000D03*
X132750000Y-111000000D03*
%TD*%
D18*
%TO.C,JP4*%
X134661900Y-107000000D03*
X133838100Y-107000000D03*
%TD*%
D16*
%TO.C,C24*%
X140000000Y-116350000D03*
X140000000Y-117650000D03*
%TD*%
D15*
%TO.C,C23*%
X136451000Y-112000000D03*
X135151000Y-112000000D03*
%TD*%
%TO.C,C22*%
X154231000Y-102464000D03*
X152931000Y-102464000D03*
%TD*%
%TO.C,C21*%
X154231000Y-106274000D03*
X152931000Y-106274000D03*
%TD*%
D16*
%TO.C,C20*%
X145961000Y-112004000D03*
X145961000Y-110704000D03*
%TD*%
D15*
%TO.C,C19*%
X137691000Y-106274000D03*
X138991000Y-106274000D03*
%TD*%
%TO.C,C18*%
X137691000Y-103734000D03*
X138991000Y-103734000D03*
%TD*%
%TO.C,C17*%
X137691000Y-101194000D03*
X138991000Y-101194000D03*
%TD*%
D16*
%TO.C,C16*%
X146231000Y-92350000D03*
X146231000Y-93650000D03*
%TD*%
D15*
%TO.C,C15*%
X154231000Y-101194000D03*
X152931000Y-101194000D03*
%TD*%
D16*
%TO.C,C14*%
X147231000Y-113274000D03*
X147231000Y-111974000D03*
%TD*%
%TO.C,C13*%
X144691000Y-112004000D03*
X144691000Y-110704000D03*
%TD*%
D15*
%TO.C,C12*%
X136451000Y-110000000D03*
X135151000Y-110000000D03*
%TD*%
D16*
%TO.C,C11*%
X134531000Y-98003600D03*
X134531000Y-99303600D03*
%TD*%
%TO.C,C10*%
X135801000Y-98003600D03*
X135801000Y-99303600D03*
%TD*%
D15*
%TO.C,C9*%
X138991000Y-105004000D03*
X137691000Y-105004000D03*
%TD*%
D16*
%TO.C,C8*%
X161201000Y-105654000D03*
X161201000Y-104354000D03*
%TD*%
%TO.C,C7*%
X158661000Y-96733600D03*
X158661000Y-98033600D03*
%TD*%
D19*
%TO.C,C6*%
X154851000Y-111224000D03*
X154851000Y-114024000D03*
%TD*%
D16*
%TO.C,C5*%
X152311000Y-113274000D03*
X152311000Y-111974000D03*
%TD*%
D19*
%TO.C,C4*%
X156121000Y-98783600D03*
X156121000Y-95983600D03*
%TD*%
D16*
%TO.C,C3*%
X161201000Y-103114000D03*
X161201000Y-101814000D03*
%TD*%
D15*
%TO.C,C2*%
X130071000Y-101194000D03*
X131371000Y-101194000D03*
%TD*%
D20*
%TO.C,C1*%
X132121000Y-103734000D03*
X129321000Y-103734000D03*
%TD*%
M02*
