%TF.GenerationSoftware,KiCad,Pcbnew,5.1.8-db9833491~87~ubuntu18.04.1*%
%TF.CreationDate,2020-11-08T14:36:31-03:00*%
%TF.ProjectId,DCI_TP,4443495f-5450-42e6-9b69-6361645f7063,1.0*%
%TF.SameCoordinates,Original*%
%TF.FileFunction,Soldermask,Top*%
%TF.FilePolarity,Negative*%
%FSLAX46Y46*%
G04 Gerber Fmt 4.6, Leading zero omitted, Abs format (unit mm)*
G04 Created by KiCad (PCBNEW 5.1.8-db9833491~87~ubuntu18.04.1) date 2020-11-08 14:36:31*
%MOMM*%
%LPD*%
G01*
G04 APERTURE LIST*
%ADD10C,2.082800*%
G04 APERTURE END LIST*
%TO.C,Q1*%
G36*
G01*
X160361000Y-102935600D02*
X159261000Y-102935600D01*
G75*
G02*
X159159400Y-102834000I0J101600D01*
G01*
X159159400Y-100934000D01*
G75*
G02*
X159261000Y-100832400I101600J0D01*
G01*
X160361000Y-100832400D01*
G75*
G02*
X160462600Y-100934000I0J-101600D01*
G01*
X160462600Y-102834000D01*
G75*
G02*
X160361000Y-102935600I-101600J0D01*
G01*
G37*
G36*
G01*
X158061000Y-106635600D02*
X156961000Y-106635600D01*
G75*
G02*
X156859400Y-106534000I0J101600D01*
G01*
X156859400Y-104634000D01*
G75*
G02*
X156961000Y-104532400I101600J0D01*
G01*
X158061000Y-104532400D01*
G75*
G02*
X158162600Y-104634000I0J-101600D01*
G01*
X158162600Y-106534000D01*
G75*
G02*
X158061000Y-106635600I-101600J0D01*
G01*
G37*
G36*
G01*
X158061000Y-102935600D02*
X156961000Y-102935600D01*
G75*
G02*
X156859400Y-102834000I0J101600D01*
G01*
X156859400Y-100934000D01*
G75*
G02*
X156961000Y-100832400I101600J0D01*
G01*
X158061000Y-100832400D01*
G75*
G02*
X158162600Y-100934000I0J-101600D01*
G01*
X158162600Y-102834000D01*
G75*
G02*
X158061000Y-102935600I-101600J0D01*
G01*
G37*
G36*
G01*
X160361000Y-106635600D02*
X159261000Y-106635600D01*
G75*
G02*
X159159400Y-106534000I0J101600D01*
G01*
X159159400Y-104634000D01*
G75*
G02*
X159261000Y-104532400I101600J0D01*
G01*
X160361000Y-104532400D01*
G75*
G02*
X160462600Y-104634000I0J-101600D01*
G01*
X160462600Y-106534000D01*
G75*
G02*
X160361000Y-106635600I-101600J0D01*
G01*
G37*
%TD*%
%TO.C,U$12*%
G36*
G01*
X153951600Y-97833600D02*
X153951600Y-98583600D01*
G75*
G02*
X153850000Y-98685200I-101600J0D01*
G01*
X153450000Y-98685200D01*
G75*
G02*
X153348400Y-98583600I0J101600D01*
G01*
X153348400Y-97833600D01*
G75*
G02*
X153450000Y-97732000I101600J0D01*
G01*
X153850000Y-97732000D01*
G75*
G02*
X153951600Y-97833600I0J-101600D01*
G01*
G37*
G36*
G01*
X152651600Y-97833600D02*
X152651600Y-98583600D01*
G75*
G02*
X152550000Y-98685200I-101600J0D01*
G01*
X152150000Y-98685200D01*
G75*
G02*
X152048400Y-98583600I0J101600D01*
G01*
X152048400Y-97833600D01*
G75*
G02*
X152150000Y-97732000I101600J0D01*
G01*
X152550000Y-97732000D01*
G75*
G02*
X152651600Y-97833600I0J-101600D01*
G01*
G37*
G36*
G01*
X152651600Y-96183600D02*
X152651600Y-96933600D01*
G75*
G02*
X152550000Y-97035200I-101600J0D01*
G01*
X152150000Y-97035200D01*
G75*
G02*
X152048400Y-96933600I0J101600D01*
G01*
X152048400Y-96183600D01*
G75*
G02*
X152150000Y-96082000I101600J0D01*
G01*
X152550000Y-96082000D01*
G75*
G02*
X152651600Y-96183600I0J-101600D01*
G01*
G37*
G36*
G01*
X153301600Y-96183600D02*
X153301600Y-96933600D01*
G75*
G02*
X153200000Y-97035200I-101600J0D01*
G01*
X152800000Y-97035200D01*
G75*
G02*
X152698400Y-96933600I0J101600D01*
G01*
X152698400Y-96183600D01*
G75*
G02*
X152800000Y-96082000I101600J0D01*
G01*
X153200000Y-96082000D01*
G75*
G02*
X153301600Y-96183600I0J-101600D01*
G01*
G37*
G36*
G01*
X153951600Y-96183600D02*
X153951600Y-96933600D01*
G75*
G02*
X153850000Y-97035200I-101600J0D01*
G01*
X153450000Y-97035200D01*
G75*
G02*
X153348400Y-96933600I0J101600D01*
G01*
X153348400Y-96183600D01*
G75*
G02*
X153450000Y-96082000I101600J0D01*
G01*
X153850000Y-96082000D01*
G75*
G02*
X153951600Y-96183600I0J-101600D01*
G01*
G37*
%TD*%
%TO.C,U$2*%
G36*
G01*
X130450000Y-106592400D02*
X131200000Y-106592400D01*
G75*
G02*
X131301600Y-106694000I0J-101600D01*
G01*
X131301600Y-107094000D01*
G75*
G02*
X131200000Y-107195600I-101600J0D01*
G01*
X130450000Y-107195600D01*
G75*
G02*
X130348400Y-107094000I0J101600D01*
G01*
X130348400Y-106694000D01*
G75*
G02*
X130450000Y-106592400I101600J0D01*
G01*
G37*
G36*
G01*
X130450000Y-107892400D02*
X131200000Y-107892400D01*
G75*
G02*
X131301600Y-107994000I0J-101600D01*
G01*
X131301600Y-108394000D01*
G75*
G02*
X131200000Y-108495600I-101600J0D01*
G01*
X130450000Y-108495600D01*
G75*
G02*
X130348400Y-108394000I0J101600D01*
G01*
X130348400Y-107994000D01*
G75*
G02*
X130450000Y-107892400I101600J0D01*
G01*
G37*
G36*
G01*
X128800000Y-107892400D02*
X129550000Y-107892400D01*
G75*
G02*
X129651600Y-107994000I0J-101600D01*
G01*
X129651600Y-108394000D01*
G75*
G02*
X129550000Y-108495600I-101600J0D01*
G01*
X128800000Y-108495600D01*
G75*
G02*
X128698400Y-108394000I0J101600D01*
G01*
X128698400Y-107994000D01*
G75*
G02*
X128800000Y-107892400I101600J0D01*
G01*
G37*
G36*
G01*
X128800000Y-107242400D02*
X129550000Y-107242400D01*
G75*
G02*
X129651600Y-107344000I0J-101600D01*
G01*
X129651600Y-107744000D01*
G75*
G02*
X129550000Y-107845600I-101600J0D01*
G01*
X128800000Y-107845600D01*
G75*
G02*
X128698400Y-107744000I0J101600D01*
G01*
X128698400Y-107344000D01*
G75*
G02*
X128800000Y-107242400I101600J0D01*
G01*
G37*
G36*
G01*
X128800000Y-106592400D02*
X129550000Y-106592400D01*
G75*
G02*
X129651600Y-106694000I0J-101600D01*
G01*
X129651600Y-107094000D01*
G75*
G02*
X129550000Y-107195600I-101600J0D01*
G01*
X128800000Y-107195600D01*
G75*
G02*
X128698400Y-107094000I0J101600D01*
G01*
X128698400Y-106694000D01*
G75*
G02*
X128800000Y-106592400I101600J0D01*
G01*
G37*
%TD*%
%TO.C,U2*%
G36*
G01*
X141037900Y-106611000D02*
X141037900Y-106357000D01*
G75*
G02*
X141139500Y-106255400I101600J0D01*
G01*
X142282500Y-106255400D01*
G75*
G02*
X142384100Y-106357000I0J-101600D01*
G01*
X142384100Y-106611000D01*
G75*
G02*
X142282500Y-106712600I-101600J0D01*
G01*
X141139500Y-106712600D01*
G75*
G02*
X141037900Y-106611000I0J101600D01*
G01*
G37*
G36*
G01*
X141037900Y-106111000D02*
X141037900Y-105857000D01*
G75*
G02*
X141139500Y-105755400I101600J0D01*
G01*
X142282500Y-105755400D01*
G75*
G02*
X142384100Y-105857000I0J-101600D01*
G01*
X142384100Y-106111000D01*
G75*
G02*
X142282500Y-106212600I-101600J0D01*
G01*
X141139500Y-106212600D01*
G75*
G02*
X141037900Y-106111000I0J101600D01*
G01*
G37*
G36*
G01*
X141037900Y-105611000D02*
X141037900Y-105357000D01*
G75*
G02*
X141139500Y-105255400I101600J0D01*
G01*
X142282500Y-105255400D01*
G75*
G02*
X142384100Y-105357000I0J-101600D01*
G01*
X142384100Y-105611000D01*
G75*
G02*
X142282500Y-105712600I-101600J0D01*
G01*
X141139500Y-105712600D01*
G75*
G02*
X141037900Y-105611000I0J101600D01*
G01*
G37*
G36*
G01*
X141037900Y-105111000D02*
X141037900Y-104857000D01*
G75*
G02*
X141139500Y-104755400I101600J0D01*
G01*
X142282500Y-104755400D01*
G75*
G02*
X142384100Y-104857000I0J-101600D01*
G01*
X142384100Y-105111000D01*
G75*
G02*
X142282500Y-105212600I-101600J0D01*
G01*
X141139500Y-105212600D01*
G75*
G02*
X141037900Y-105111000I0J101600D01*
G01*
G37*
G36*
G01*
X141037900Y-104611000D02*
X141037900Y-104357000D01*
G75*
G02*
X141139500Y-104255400I101600J0D01*
G01*
X142282500Y-104255400D01*
G75*
G02*
X142384100Y-104357000I0J-101600D01*
G01*
X142384100Y-104611000D01*
G75*
G02*
X142282500Y-104712600I-101600J0D01*
G01*
X141139500Y-104712600D01*
G75*
G02*
X141037900Y-104611000I0J101600D01*
G01*
G37*
G36*
G01*
X141037900Y-104111000D02*
X141037900Y-103857000D01*
G75*
G02*
X141139500Y-103755400I101600J0D01*
G01*
X142282500Y-103755400D01*
G75*
G02*
X142384100Y-103857000I0J-101600D01*
G01*
X142384100Y-104111000D01*
G75*
G02*
X142282500Y-104212600I-101600J0D01*
G01*
X141139500Y-104212600D01*
G75*
G02*
X141037900Y-104111000I0J101600D01*
G01*
G37*
G36*
G01*
X141037900Y-103611000D02*
X141037900Y-103357000D01*
G75*
G02*
X141139500Y-103255400I101600J0D01*
G01*
X142282500Y-103255400D01*
G75*
G02*
X142384100Y-103357000I0J-101600D01*
G01*
X142384100Y-103611000D01*
G75*
G02*
X142282500Y-103712600I-101600J0D01*
G01*
X141139500Y-103712600D01*
G75*
G02*
X141037900Y-103611000I0J101600D01*
G01*
G37*
G36*
G01*
X141037900Y-103111000D02*
X141037900Y-102857000D01*
G75*
G02*
X141139500Y-102755400I101600J0D01*
G01*
X142282500Y-102755400D01*
G75*
G02*
X142384100Y-102857000I0J-101600D01*
G01*
X142384100Y-103111000D01*
G75*
G02*
X142282500Y-103212600I-101600J0D01*
G01*
X141139500Y-103212600D01*
G75*
G02*
X141037900Y-103111000I0J101600D01*
G01*
G37*
G36*
G01*
X141037900Y-102611000D02*
X141037900Y-102357000D01*
G75*
G02*
X141139500Y-102255400I101600J0D01*
G01*
X142282500Y-102255400D01*
G75*
G02*
X142384100Y-102357000I0J-101600D01*
G01*
X142384100Y-102611000D01*
G75*
G02*
X142282500Y-102712600I-101600J0D01*
G01*
X141139500Y-102712600D01*
G75*
G02*
X141037900Y-102611000I0J101600D01*
G01*
G37*
G36*
G01*
X141037900Y-102111000D02*
X141037900Y-101857000D01*
G75*
G02*
X141139500Y-101755400I101600J0D01*
G01*
X142282500Y-101755400D01*
G75*
G02*
X142384100Y-101857000I0J-101600D01*
G01*
X142384100Y-102111000D01*
G75*
G02*
X142282500Y-102212600I-101600J0D01*
G01*
X141139500Y-102212600D01*
G75*
G02*
X141037900Y-102111000I0J101600D01*
G01*
G37*
G36*
G01*
X141037900Y-101611000D02*
X141037900Y-101357000D01*
G75*
G02*
X141139500Y-101255400I101600J0D01*
G01*
X142282500Y-101255400D01*
G75*
G02*
X142384100Y-101357000I0J-101600D01*
G01*
X142384100Y-101611000D01*
G75*
G02*
X142282500Y-101712600I-101600J0D01*
G01*
X141139500Y-101712600D01*
G75*
G02*
X141037900Y-101611000I0J101600D01*
G01*
G37*
G36*
G01*
X141037900Y-101111000D02*
X141037900Y-100857000D01*
G75*
G02*
X141139500Y-100755400I101600J0D01*
G01*
X142282500Y-100755400D01*
G75*
G02*
X142384100Y-100857000I0J-101600D01*
G01*
X142384100Y-101111000D01*
G75*
G02*
X142282500Y-101212600I-101600J0D01*
G01*
X141139500Y-101212600D01*
G75*
G02*
X141037900Y-101111000I0J101600D01*
G01*
G37*
G36*
G01*
X142982400Y-100055500D02*
X142982400Y-98912500D01*
G75*
G02*
X143084000Y-98810900I101600J0D01*
G01*
X143338000Y-98810900D01*
G75*
G02*
X143439600Y-98912500I0J-101600D01*
G01*
X143439600Y-100055500D01*
G75*
G02*
X143338000Y-100157100I-101600J0D01*
G01*
X143084000Y-100157100D01*
G75*
G02*
X142982400Y-100055500I0J101600D01*
G01*
G37*
G36*
G01*
X143482400Y-100055500D02*
X143482400Y-98912500D01*
G75*
G02*
X143584000Y-98810900I101600J0D01*
G01*
X143838000Y-98810900D01*
G75*
G02*
X143939600Y-98912500I0J-101600D01*
G01*
X143939600Y-100055500D01*
G75*
G02*
X143838000Y-100157100I-101600J0D01*
G01*
X143584000Y-100157100D01*
G75*
G02*
X143482400Y-100055500I0J101600D01*
G01*
G37*
G36*
G01*
X143982400Y-100055500D02*
X143982400Y-98912500D01*
G75*
G02*
X144084000Y-98810900I101600J0D01*
G01*
X144338000Y-98810900D01*
G75*
G02*
X144439600Y-98912500I0J-101600D01*
G01*
X144439600Y-100055500D01*
G75*
G02*
X144338000Y-100157100I-101600J0D01*
G01*
X144084000Y-100157100D01*
G75*
G02*
X143982400Y-100055500I0J101600D01*
G01*
G37*
G36*
G01*
X144482400Y-100055500D02*
X144482400Y-98912500D01*
G75*
G02*
X144584000Y-98810900I101600J0D01*
G01*
X144838000Y-98810900D01*
G75*
G02*
X144939600Y-98912500I0J-101600D01*
G01*
X144939600Y-100055500D01*
G75*
G02*
X144838000Y-100157100I-101600J0D01*
G01*
X144584000Y-100157100D01*
G75*
G02*
X144482400Y-100055500I0J101600D01*
G01*
G37*
G36*
G01*
X144982400Y-100055500D02*
X144982400Y-98912500D01*
G75*
G02*
X145084000Y-98810900I101600J0D01*
G01*
X145338000Y-98810900D01*
G75*
G02*
X145439600Y-98912500I0J-101600D01*
G01*
X145439600Y-100055500D01*
G75*
G02*
X145338000Y-100157100I-101600J0D01*
G01*
X145084000Y-100157100D01*
G75*
G02*
X144982400Y-100055500I0J101600D01*
G01*
G37*
G36*
G01*
X145482400Y-100055500D02*
X145482400Y-98912500D01*
G75*
G02*
X145584000Y-98810900I101600J0D01*
G01*
X145838000Y-98810900D01*
G75*
G02*
X145939600Y-98912500I0J-101600D01*
G01*
X145939600Y-100055500D01*
G75*
G02*
X145838000Y-100157100I-101600J0D01*
G01*
X145584000Y-100157100D01*
G75*
G02*
X145482400Y-100055500I0J101600D01*
G01*
G37*
G36*
G01*
X145982400Y-100055500D02*
X145982400Y-98912500D01*
G75*
G02*
X146084000Y-98810900I101600J0D01*
G01*
X146338000Y-98810900D01*
G75*
G02*
X146439600Y-98912500I0J-101600D01*
G01*
X146439600Y-100055500D01*
G75*
G02*
X146338000Y-100157100I-101600J0D01*
G01*
X146084000Y-100157100D01*
G75*
G02*
X145982400Y-100055500I0J101600D01*
G01*
G37*
G36*
G01*
X146482400Y-100055500D02*
X146482400Y-98912500D01*
G75*
G02*
X146584000Y-98810900I101600J0D01*
G01*
X146838000Y-98810900D01*
G75*
G02*
X146939600Y-98912500I0J-101600D01*
G01*
X146939600Y-100055500D01*
G75*
G02*
X146838000Y-100157100I-101600J0D01*
G01*
X146584000Y-100157100D01*
G75*
G02*
X146482400Y-100055500I0J101600D01*
G01*
G37*
G36*
G01*
X146982400Y-100055500D02*
X146982400Y-98912500D01*
G75*
G02*
X147084000Y-98810900I101600J0D01*
G01*
X147338000Y-98810900D01*
G75*
G02*
X147439600Y-98912500I0J-101600D01*
G01*
X147439600Y-100055500D01*
G75*
G02*
X147338000Y-100157100I-101600J0D01*
G01*
X147084000Y-100157100D01*
G75*
G02*
X146982400Y-100055500I0J101600D01*
G01*
G37*
G36*
G01*
X147482400Y-100055500D02*
X147482400Y-98912500D01*
G75*
G02*
X147584000Y-98810900I101600J0D01*
G01*
X147838000Y-98810900D01*
G75*
G02*
X147939600Y-98912500I0J-101600D01*
G01*
X147939600Y-100055500D01*
G75*
G02*
X147838000Y-100157100I-101600J0D01*
G01*
X147584000Y-100157100D01*
G75*
G02*
X147482400Y-100055500I0J101600D01*
G01*
G37*
G36*
G01*
X147982400Y-100055500D02*
X147982400Y-98912500D01*
G75*
G02*
X148084000Y-98810900I101600J0D01*
G01*
X148338000Y-98810900D01*
G75*
G02*
X148439600Y-98912500I0J-101600D01*
G01*
X148439600Y-100055500D01*
G75*
G02*
X148338000Y-100157100I-101600J0D01*
G01*
X148084000Y-100157100D01*
G75*
G02*
X147982400Y-100055500I0J101600D01*
G01*
G37*
G36*
G01*
X148482400Y-100055500D02*
X148482400Y-98912500D01*
G75*
G02*
X148584000Y-98810900I101600J0D01*
G01*
X148838000Y-98810900D01*
G75*
G02*
X148939600Y-98912500I0J-101600D01*
G01*
X148939600Y-100055500D01*
G75*
G02*
X148838000Y-100157100I-101600J0D01*
G01*
X148584000Y-100157100D01*
G75*
G02*
X148482400Y-100055500I0J101600D01*
G01*
G37*
G36*
G01*
X149537900Y-101111000D02*
X149537900Y-100857000D01*
G75*
G02*
X149639500Y-100755400I101600J0D01*
G01*
X150782500Y-100755400D01*
G75*
G02*
X150884100Y-100857000I0J-101600D01*
G01*
X150884100Y-101111000D01*
G75*
G02*
X150782500Y-101212600I-101600J0D01*
G01*
X149639500Y-101212600D01*
G75*
G02*
X149537900Y-101111000I0J101600D01*
G01*
G37*
G36*
G01*
X149537900Y-101611000D02*
X149537900Y-101357000D01*
G75*
G02*
X149639500Y-101255400I101600J0D01*
G01*
X150782500Y-101255400D01*
G75*
G02*
X150884100Y-101357000I0J-101600D01*
G01*
X150884100Y-101611000D01*
G75*
G02*
X150782500Y-101712600I-101600J0D01*
G01*
X149639500Y-101712600D01*
G75*
G02*
X149537900Y-101611000I0J101600D01*
G01*
G37*
G36*
G01*
X149537900Y-102111000D02*
X149537900Y-101857000D01*
G75*
G02*
X149639500Y-101755400I101600J0D01*
G01*
X150782500Y-101755400D01*
G75*
G02*
X150884100Y-101857000I0J-101600D01*
G01*
X150884100Y-102111000D01*
G75*
G02*
X150782500Y-102212600I-101600J0D01*
G01*
X149639500Y-102212600D01*
G75*
G02*
X149537900Y-102111000I0J101600D01*
G01*
G37*
G36*
G01*
X149537900Y-102611000D02*
X149537900Y-102357000D01*
G75*
G02*
X149639500Y-102255400I101600J0D01*
G01*
X150782500Y-102255400D01*
G75*
G02*
X150884100Y-102357000I0J-101600D01*
G01*
X150884100Y-102611000D01*
G75*
G02*
X150782500Y-102712600I-101600J0D01*
G01*
X149639500Y-102712600D01*
G75*
G02*
X149537900Y-102611000I0J101600D01*
G01*
G37*
G36*
G01*
X149537900Y-103111000D02*
X149537900Y-102857000D01*
G75*
G02*
X149639500Y-102755400I101600J0D01*
G01*
X150782500Y-102755400D01*
G75*
G02*
X150884100Y-102857000I0J-101600D01*
G01*
X150884100Y-103111000D01*
G75*
G02*
X150782500Y-103212600I-101600J0D01*
G01*
X149639500Y-103212600D01*
G75*
G02*
X149537900Y-103111000I0J101600D01*
G01*
G37*
G36*
G01*
X149537900Y-103611000D02*
X149537900Y-103357000D01*
G75*
G02*
X149639500Y-103255400I101600J0D01*
G01*
X150782500Y-103255400D01*
G75*
G02*
X150884100Y-103357000I0J-101600D01*
G01*
X150884100Y-103611000D01*
G75*
G02*
X150782500Y-103712600I-101600J0D01*
G01*
X149639500Y-103712600D01*
G75*
G02*
X149537900Y-103611000I0J101600D01*
G01*
G37*
G36*
G01*
X149537900Y-104111000D02*
X149537900Y-103857000D01*
G75*
G02*
X149639500Y-103755400I101600J0D01*
G01*
X150782500Y-103755400D01*
G75*
G02*
X150884100Y-103857000I0J-101600D01*
G01*
X150884100Y-104111000D01*
G75*
G02*
X150782500Y-104212600I-101600J0D01*
G01*
X149639500Y-104212600D01*
G75*
G02*
X149537900Y-104111000I0J101600D01*
G01*
G37*
G36*
G01*
X149537900Y-104611000D02*
X149537900Y-104357000D01*
G75*
G02*
X149639500Y-104255400I101600J0D01*
G01*
X150782500Y-104255400D01*
G75*
G02*
X150884100Y-104357000I0J-101600D01*
G01*
X150884100Y-104611000D01*
G75*
G02*
X150782500Y-104712600I-101600J0D01*
G01*
X149639500Y-104712600D01*
G75*
G02*
X149537900Y-104611000I0J101600D01*
G01*
G37*
G36*
G01*
X149537900Y-105111000D02*
X149537900Y-104857000D01*
G75*
G02*
X149639500Y-104755400I101600J0D01*
G01*
X150782500Y-104755400D01*
G75*
G02*
X150884100Y-104857000I0J-101600D01*
G01*
X150884100Y-105111000D01*
G75*
G02*
X150782500Y-105212600I-101600J0D01*
G01*
X149639500Y-105212600D01*
G75*
G02*
X149537900Y-105111000I0J101600D01*
G01*
G37*
G36*
G01*
X149537900Y-105611000D02*
X149537900Y-105357000D01*
G75*
G02*
X149639500Y-105255400I101600J0D01*
G01*
X150782500Y-105255400D01*
G75*
G02*
X150884100Y-105357000I0J-101600D01*
G01*
X150884100Y-105611000D01*
G75*
G02*
X150782500Y-105712600I-101600J0D01*
G01*
X149639500Y-105712600D01*
G75*
G02*
X149537900Y-105611000I0J101600D01*
G01*
G37*
G36*
G01*
X149537900Y-106111000D02*
X149537900Y-105857000D01*
G75*
G02*
X149639500Y-105755400I101600J0D01*
G01*
X150782500Y-105755400D01*
G75*
G02*
X150884100Y-105857000I0J-101600D01*
G01*
X150884100Y-106111000D01*
G75*
G02*
X150782500Y-106212600I-101600J0D01*
G01*
X149639500Y-106212600D01*
G75*
G02*
X149537900Y-106111000I0J101600D01*
G01*
G37*
G36*
G01*
X149537900Y-106611000D02*
X149537900Y-106357000D01*
G75*
G02*
X149639500Y-106255400I101600J0D01*
G01*
X150782500Y-106255400D01*
G75*
G02*
X150884100Y-106357000I0J-101600D01*
G01*
X150884100Y-106611000D01*
G75*
G02*
X150782500Y-106712600I-101600J0D01*
G01*
X149639500Y-106712600D01*
G75*
G02*
X149537900Y-106611000I0J101600D01*
G01*
G37*
G36*
G01*
X148482400Y-108555500D02*
X148482400Y-107412500D01*
G75*
G02*
X148584000Y-107310900I101600J0D01*
G01*
X148838000Y-107310900D01*
G75*
G02*
X148939600Y-107412500I0J-101600D01*
G01*
X148939600Y-108555500D01*
G75*
G02*
X148838000Y-108657100I-101600J0D01*
G01*
X148584000Y-108657100D01*
G75*
G02*
X148482400Y-108555500I0J101600D01*
G01*
G37*
G36*
G01*
X147982400Y-108555500D02*
X147982400Y-107412500D01*
G75*
G02*
X148084000Y-107310900I101600J0D01*
G01*
X148338000Y-107310900D01*
G75*
G02*
X148439600Y-107412500I0J-101600D01*
G01*
X148439600Y-108555500D01*
G75*
G02*
X148338000Y-108657100I-101600J0D01*
G01*
X148084000Y-108657100D01*
G75*
G02*
X147982400Y-108555500I0J101600D01*
G01*
G37*
G36*
G01*
X147482400Y-108555500D02*
X147482400Y-107412500D01*
G75*
G02*
X147584000Y-107310900I101600J0D01*
G01*
X147838000Y-107310900D01*
G75*
G02*
X147939600Y-107412500I0J-101600D01*
G01*
X147939600Y-108555500D01*
G75*
G02*
X147838000Y-108657100I-101600J0D01*
G01*
X147584000Y-108657100D01*
G75*
G02*
X147482400Y-108555500I0J101600D01*
G01*
G37*
G36*
G01*
X146982400Y-108555500D02*
X146982400Y-107412500D01*
G75*
G02*
X147084000Y-107310900I101600J0D01*
G01*
X147338000Y-107310900D01*
G75*
G02*
X147439600Y-107412500I0J-101600D01*
G01*
X147439600Y-108555500D01*
G75*
G02*
X147338000Y-108657100I-101600J0D01*
G01*
X147084000Y-108657100D01*
G75*
G02*
X146982400Y-108555500I0J101600D01*
G01*
G37*
G36*
G01*
X146482400Y-108555500D02*
X146482400Y-107412500D01*
G75*
G02*
X146584000Y-107310900I101600J0D01*
G01*
X146838000Y-107310900D01*
G75*
G02*
X146939600Y-107412500I0J-101600D01*
G01*
X146939600Y-108555500D01*
G75*
G02*
X146838000Y-108657100I-101600J0D01*
G01*
X146584000Y-108657100D01*
G75*
G02*
X146482400Y-108555500I0J101600D01*
G01*
G37*
G36*
G01*
X145982400Y-108555500D02*
X145982400Y-107412500D01*
G75*
G02*
X146084000Y-107310900I101600J0D01*
G01*
X146338000Y-107310900D01*
G75*
G02*
X146439600Y-107412500I0J-101600D01*
G01*
X146439600Y-108555500D01*
G75*
G02*
X146338000Y-108657100I-101600J0D01*
G01*
X146084000Y-108657100D01*
G75*
G02*
X145982400Y-108555500I0J101600D01*
G01*
G37*
G36*
G01*
X145482400Y-108555500D02*
X145482400Y-107412500D01*
G75*
G02*
X145584000Y-107310900I101600J0D01*
G01*
X145838000Y-107310900D01*
G75*
G02*
X145939600Y-107412500I0J-101600D01*
G01*
X145939600Y-108555500D01*
G75*
G02*
X145838000Y-108657100I-101600J0D01*
G01*
X145584000Y-108657100D01*
G75*
G02*
X145482400Y-108555500I0J101600D01*
G01*
G37*
G36*
G01*
X144982400Y-108555500D02*
X144982400Y-107412500D01*
G75*
G02*
X145084000Y-107310900I101600J0D01*
G01*
X145338000Y-107310900D01*
G75*
G02*
X145439600Y-107412500I0J-101600D01*
G01*
X145439600Y-108555500D01*
G75*
G02*
X145338000Y-108657100I-101600J0D01*
G01*
X145084000Y-108657100D01*
G75*
G02*
X144982400Y-108555500I0J101600D01*
G01*
G37*
G36*
G01*
X144482400Y-108555500D02*
X144482400Y-107412500D01*
G75*
G02*
X144584000Y-107310900I101600J0D01*
G01*
X144838000Y-107310900D01*
G75*
G02*
X144939600Y-107412500I0J-101600D01*
G01*
X144939600Y-108555500D01*
G75*
G02*
X144838000Y-108657100I-101600J0D01*
G01*
X144584000Y-108657100D01*
G75*
G02*
X144482400Y-108555500I0J101600D01*
G01*
G37*
G36*
G01*
X143982400Y-108555500D02*
X143982400Y-107412500D01*
G75*
G02*
X144084000Y-107310900I101600J0D01*
G01*
X144338000Y-107310900D01*
G75*
G02*
X144439600Y-107412500I0J-101600D01*
G01*
X144439600Y-108555500D01*
G75*
G02*
X144338000Y-108657100I-101600J0D01*
G01*
X144084000Y-108657100D01*
G75*
G02*
X143982400Y-108555500I0J101600D01*
G01*
G37*
G36*
G01*
X143482400Y-108555500D02*
X143482400Y-107412500D01*
G75*
G02*
X143584000Y-107310900I101600J0D01*
G01*
X143838000Y-107310900D01*
G75*
G02*
X143939600Y-107412500I0J-101600D01*
G01*
X143939600Y-108555500D01*
G75*
G02*
X143838000Y-108657100I-101600J0D01*
G01*
X143584000Y-108657100D01*
G75*
G02*
X143482400Y-108555500I0J101600D01*
G01*
G37*
G36*
G01*
X142982400Y-108555500D02*
X142982400Y-107412500D01*
G75*
G02*
X143084000Y-107310900I101600J0D01*
G01*
X143338000Y-107310900D01*
G75*
G02*
X143439600Y-107412500I0J-101600D01*
G01*
X143439600Y-108555500D01*
G75*
G02*
X143338000Y-108657100I-101600J0D01*
G01*
X143084000Y-108657100D01*
G75*
G02*
X142982400Y-108555500I0J101600D01*
G01*
G37*
%TD*%
%TO.C,U1*%
G36*
G01*
X157334400Y-111923900D02*
X157334400Y-110723900D01*
G75*
G02*
X157436000Y-110622300I101600J0D01*
G01*
X157986000Y-110622300D01*
G75*
G02*
X158087600Y-110723900I0J-101600D01*
G01*
X158087600Y-111923900D01*
G75*
G02*
X157986000Y-112025500I-101600J0D01*
G01*
X157436000Y-112025500D01*
G75*
G02*
X157334400Y-111923900I0J101600D01*
G01*
G37*
G36*
G01*
X159234400Y-111923900D02*
X159234400Y-110723900D01*
G75*
G02*
X159336000Y-110622300I101600J0D01*
G01*
X159886000Y-110622300D01*
G75*
G02*
X159987600Y-110723900I0J-101600D01*
G01*
X159987600Y-111923900D01*
G75*
G02*
X159886000Y-112025500I-101600J0D01*
G01*
X159336000Y-112025500D01*
G75*
G02*
X159234400Y-111923900I0J101600D01*
G01*
G37*
G36*
G01*
X159234400Y-114524100D02*
X159234400Y-113324100D01*
G75*
G02*
X159336000Y-113222500I101600J0D01*
G01*
X159886000Y-113222500D01*
G75*
G02*
X159987600Y-113324100I0J-101600D01*
G01*
X159987600Y-114524100D01*
G75*
G02*
X159886000Y-114625700I-101600J0D01*
G01*
X159336000Y-114625700D01*
G75*
G02*
X159234400Y-114524100I0J101600D01*
G01*
G37*
G36*
G01*
X158284400Y-114524100D02*
X158284400Y-113324100D01*
G75*
G02*
X158386000Y-113222500I101600J0D01*
G01*
X158936000Y-113222500D01*
G75*
G02*
X159037600Y-113324100I0J-101600D01*
G01*
X159037600Y-114524100D01*
G75*
G02*
X158936000Y-114625700I-101600J0D01*
G01*
X158386000Y-114625700D01*
G75*
G02*
X158284400Y-114524100I0J101600D01*
G01*
G37*
G36*
G01*
X157334400Y-114524100D02*
X157334400Y-113324100D01*
G75*
G02*
X157436000Y-113222500I101600J0D01*
G01*
X157986000Y-113222500D01*
G75*
G02*
X158087600Y-113324100I0J-101600D01*
G01*
X158087600Y-114524100D01*
G75*
G02*
X157986000Y-114625700I-101600J0D01*
G01*
X157436000Y-114625700D01*
G75*
G02*
X157334400Y-114524100I0J101600D01*
G01*
G37*
%TD*%
%TO.C,R17*%
G36*
G01*
X166479400Y-110534000D02*
X166479400Y-109634000D01*
G75*
G02*
X166581000Y-109532400I101600J0D01*
G01*
X167281000Y-109532400D01*
G75*
G02*
X167382600Y-109634000I0J-101600D01*
G01*
X167382600Y-110534000D01*
G75*
G02*
X167281000Y-110635600I-101600J0D01*
G01*
X166581000Y-110635600D01*
G75*
G02*
X166479400Y-110534000I0J101600D01*
G01*
G37*
G36*
G01*
X165179400Y-110534000D02*
X165179400Y-109634000D01*
G75*
G02*
X165281000Y-109532400I101600J0D01*
G01*
X165981000Y-109532400D01*
G75*
G02*
X166082600Y-109634000I0J-101600D01*
G01*
X166082600Y-110534000D01*
G75*
G02*
X165981000Y-110635600I-101600J0D01*
G01*
X165281000Y-110635600D01*
G75*
G02*
X165179400Y-110534000I0J101600D01*
G01*
G37*
%TD*%
%TO.C,R16*%
G36*
G01*
X166479400Y-105454000D02*
X166479400Y-104554000D01*
G75*
G02*
X166581000Y-104452400I101600J0D01*
G01*
X167281000Y-104452400D01*
G75*
G02*
X167382600Y-104554000I0J-101600D01*
G01*
X167382600Y-105454000D01*
G75*
G02*
X167281000Y-105555600I-101600J0D01*
G01*
X166581000Y-105555600D01*
G75*
G02*
X166479400Y-105454000I0J101600D01*
G01*
G37*
G36*
G01*
X165179400Y-105454000D02*
X165179400Y-104554000D01*
G75*
G02*
X165281000Y-104452400I101600J0D01*
G01*
X165981000Y-104452400D01*
G75*
G02*
X166082600Y-104554000I0J-101600D01*
G01*
X166082600Y-105454000D01*
G75*
G02*
X165981000Y-105555600I-101600J0D01*
G01*
X165281000Y-105555600D01*
G75*
G02*
X165179400Y-105454000I0J101600D01*
G01*
G37*
%TD*%
%TO.C,R15*%
G36*
G01*
X166479400Y-100373600D02*
X166479400Y-99473600D01*
G75*
G02*
X166581000Y-99372000I101600J0D01*
G01*
X167281000Y-99372000D01*
G75*
G02*
X167382600Y-99473600I0J-101600D01*
G01*
X167382600Y-100373600D01*
G75*
G02*
X167281000Y-100475200I-101600J0D01*
G01*
X166581000Y-100475200D01*
G75*
G02*
X166479400Y-100373600I0J101600D01*
G01*
G37*
G36*
G01*
X165179400Y-100373600D02*
X165179400Y-99473600D01*
G75*
G02*
X165281000Y-99372000I101600J0D01*
G01*
X165981000Y-99372000D01*
G75*
G02*
X166082600Y-99473600I0J-101600D01*
G01*
X166082600Y-100373600D01*
G75*
G02*
X165981000Y-100475200I-101600J0D01*
G01*
X165281000Y-100475200D01*
G75*
G02*
X165179400Y-100373600I0J101600D01*
G01*
G37*
%TD*%
%TO.C,R14*%
G36*
G01*
X166479400Y-97833600D02*
X166479400Y-96933600D01*
G75*
G02*
X166581000Y-96832000I101600J0D01*
G01*
X167281000Y-96832000D01*
G75*
G02*
X167382600Y-96933600I0J-101600D01*
G01*
X167382600Y-97833600D01*
G75*
G02*
X167281000Y-97935200I-101600J0D01*
G01*
X166581000Y-97935200D01*
G75*
G02*
X166479400Y-97833600I0J101600D01*
G01*
G37*
G36*
G01*
X165179400Y-97833600D02*
X165179400Y-96933600D01*
G75*
G02*
X165281000Y-96832000I101600J0D01*
G01*
X165981000Y-96832000D01*
G75*
G02*
X166082600Y-96933600I0J-101600D01*
G01*
X166082600Y-97833600D01*
G75*
G02*
X165981000Y-97935200I-101600J0D01*
G01*
X165281000Y-97935200D01*
G75*
G02*
X165179400Y-97833600I0J101600D01*
G01*
G37*
%TD*%
%TO.C,R13*%
G36*
G01*
X139442600Y-111550000D02*
X139442600Y-112450000D01*
G75*
G02*
X139341000Y-112551600I-101600J0D01*
G01*
X138641000Y-112551600D01*
G75*
G02*
X138539400Y-112450000I0J101600D01*
G01*
X138539400Y-111550000D01*
G75*
G02*
X138641000Y-111448400I101600J0D01*
G01*
X139341000Y-111448400D01*
G75*
G02*
X139442600Y-111550000I0J-101600D01*
G01*
G37*
G36*
G01*
X138142600Y-111550000D02*
X138142600Y-112450000D01*
G75*
G02*
X138041000Y-112551600I-101600J0D01*
G01*
X137341000Y-112551600D01*
G75*
G02*
X137239400Y-112450000I0J101600D01*
G01*
X137239400Y-111550000D01*
G75*
G02*
X137341000Y-111448400I101600J0D01*
G01*
X138041000Y-111448400D01*
G75*
G02*
X138142600Y-111550000I0J-101600D01*
G01*
G37*
%TD*%
%TO.C,R12*%
G36*
G01*
X140550000Y-112898400D02*
X141450000Y-112898400D01*
G75*
G02*
X141551600Y-113000000I0J-101600D01*
G01*
X141551600Y-113700000D01*
G75*
G02*
X141450000Y-113801600I-101600J0D01*
G01*
X140550000Y-113801600D01*
G75*
G02*
X140448400Y-113700000I0J101600D01*
G01*
X140448400Y-113000000D01*
G75*
G02*
X140550000Y-112898400I101600J0D01*
G01*
G37*
G36*
G01*
X140550000Y-114198400D02*
X141450000Y-114198400D01*
G75*
G02*
X141551600Y-114300000I0J-101600D01*
G01*
X141551600Y-115000000D01*
G75*
G02*
X141450000Y-115101600I-101600J0D01*
G01*
X140550000Y-115101600D01*
G75*
G02*
X140448400Y-115000000I0J101600D01*
G01*
X140448400Y-114300000D01*
G75*
G02*
X140550000Y-114198400I101600J0D01*
G01*
G37*
%TD*%
%TO.C,R11*%
G36*
G01*
X149572600Y-112174000D02*
X149572600Y-113074000D01*
G75*
G02*
X149471000Y-113175600I-101600J0D01*
G01*
X148771000Y-113175600D01*
G75*
G02*
X148669400Y-113074000I0J101600D01*
G01*
X148669400Y-112174000D01*
G75*
G02*
X148771000Y-112072400I101600J0D01*
G01*
X149471000Y-112072400D01*
G75*
G02*
X149572600Y-112174000I0J-101600D01*
G01*
G37*
G36*
G01*
X150872600Y-112174000D02*
X150872600Y-113074000D01*
G75*
G02*
X150771000Y-113175600I-101600J0D01*
G01*
X150071000Y-113175600D01*
G75*
G02*
X149969400Y-113074000I0J101600D01*
G01*
X149969400Y-112174000D01*
G75*
G02*
X150071000Y-112072400I101600J0D01*
G01*
X150771000Y-112072400D01*
G75*
G02*
X150872600Y-112174000I0J-101600D01*
G01*
G37*
%TD*%
%TO.C,R10*%
G36*
G01*
X149572600Y-110904000D02*
X149572600Y-111804000D01*
G75*
G02*
X149471000Y-111905600I-101600J0D01*
G01*
X148771000Y-111905600D01*
G75*
G02*
X148669400Y-111804000I0J101600D01*
G01*
X148669400Y-110904000D01*
G75*
G02*
X148771000Y-110802400I101600J0D01*
G01*
X149471000Y-110802400D01*
G75*
G02*
X149572600Y-110904000I0J-101600D01*
G01*
G37*
G36*
G01*
X150872600Y-110904000D02*
X150872600Y-111804000D01*
G75*
G02*
X150771000Y-111905600I-101600J0D01*
G01*
X150071000Y-111905600D01*
G75*
G02*
X149969400Y-111804000I0J101600D01*
G01*
X149969400Y-110904000D01*
G75*
G02*
X150071000Y-110802400I101600J0D01*
G01*
X150771000Y-110802400D01*
G75*
G02*
X150872600Y-110904000I0J-101600D01*
G01*
G37*
%TD*%
%TO.C,R9*%
G36*
G01*
X138142600Y-109550000D02*
X138142600Y-110450000D01*
G75*
G02*
X138041000Y-110551600I-101600J0D01*
G01*
X137341000Y-110551600D01*
G75*
G02*
X137239400Y-110450000I0J101600D01*
G01*
X137239400Y-109550000D01*
G75*
G02*
X137341000Y-109448400I101600J0D01*
G01*
X138041000Y-109448400D01*
G75*
G02*
X138142600Y-109550000I0J-101600D01*
G01*
G37*
G36*
G01*
X139442600Y-109550000D02*
X139442600Y-110450000D01*
G75*
G02*
X139341000Y-110551600I-101600J0D01*
G01*
X138641000Y-110551600D01*
G75*
G02*
X138539400Y-110450000I0J101600D01*
G01*
X138539400Y-109550000D01*
G75*
G02*
X138641000Y-109448400I101600J0D01*
G01*
X139341000Y-109448400D01*
G75*
G02*
X139442600Y-109550000I0J-101600D01*
G01*
G37*
%TD*%
%TO.C,R8*%
G36*
G01*
X129252600Y-110550000D02*
X129252600Y-111450000D01*
G75*
G02*
X129151000Y-111551600I-101600J0D01*
G01*
X128451000Y-111551600D01*
G75*
G02*
X128349400Y-111450000I0J101600D01*
G01*
X128349400Y-110550000D01*
G75*
G02*
X128451000Y-110448400I101600J0D01*
G01*
X129151000Y-110448400D01*
G75*
G02*
X129252600Y-110550000I0J-101600D01*
G01*
G37*
G36*
G01*
X130552600Y-110550000D02*
X130552600Y-111450000D01*
G75*
G02*
X130451000Y-111551600I-101600J0D01*
G01*
X129751000Y-111551600D01*
G75*
G02*
X129649400Y-111450000I0J101600D01*
G01*
X129649400Y-110550000D01*
G75*
G02*
X129751000Y-110448400I101600J0D01*
G01*
X130451000Y-110448400D01*
G75*
G02*
X130552600Y-110550000I0J-101600D01*
G01*
G37*
%TD*%
%TO.C,R7*%
G36*
G01*
X134081000Y-101392400D02*
X134981000Y-101392400D01*
G75*
G02*
X135082600Y-101494000I0J-101600D01*
G01*
X135082600Y-102194000D01*
G75*
G02*
X134981000Y-102295600I-101600J0D01*
G01*
X134081000Y-102295600D01*
G75*
G02*
X133979400Y-102194000I0J101600D01*
G01*
X133979400Y-101494000D01*
G75*
G02*
X134081000Y-101392400I101600J0D01*
G01*
G37*
G36*
G01*
X134081000Y-100092400D02*
X134981000Y-100092400D01*
G75*
G02*
X135082600Y-100194000I0J-101600D01*
G01*
X135082600Y-100894000D01*
G75*
G02*
X134981000Y-100995600I-101600J0D01*
G01*
X134081000Y-100995600D01*
G75*
G02*
X133979400Y-100894000I0J101600D01*
G01*
X133979400Y-100194000D01*
G75*
G02*
X134081000Y-100092400I101600J0D01*
G01*
G37*
%TD*%
%TO.C,R6*%
G36*
G01*
X135351000Y-101392400D02*
X136251000Y-101392400D01*
G75*
G02*
X136352600Y-101494000I0J-101600D01*
G01*
X136352600Y-102194000D01*
G75*
G02*
X136251000Y-102295600I-101600J0D01*
G01*
X135351000Y-102295600D01*
G75*
G02*
X135249400Y-102194000I0J101600D01*
G01*
X135249400Y-101494000D01*
G75*
G02*
X135351000Y-101392400I101600J0D01*
G01*
G37*
G36*
G01*
X135351000Y-100092400D02*
X136251000Y-100092400D01*
G75*
G02*
X136352600Y-100194000I0J-101600D01*
G01*
X136352600Y-100894000D01*
G75*
G02*
X136251000Y-100995600I-101600J0D01*
G01*
X135351000Y-100995600D01*
G75*
G02*
X135249400Y-100894000I0J101600D01*
G01*
X135249400Y-100194000D01*
G75*
G02*
X135351000Y-100092400I101600J0D01*
G01*
G37*
%TD*%
%TO.C,R5*%
G36*
G01*
X143871000Y-111155600D02*
X142971000Y-111155600D01*
G75*
G02*
X142869400Y-111054000I0J101600D01*
G01*
X142869400Y-110354000D01*
G75*
G02*
X142971000Y-110252400I101600J0D01*
G01*
X143871000Y-110252400D01*
G75*
G02*
X143972600Y-110354000I0J-101600D01*
G01*
X143972600Y-111054000D01*
G75*
G02*
X143871000Y-111155600I-101600J0D01*
G01*
G37*
G36*
G01*
X143871000Y-112455600D02*
X142971000Y-112455600D01*
G75*
G02*
X142869400Y-112354000I0J101600D01*
G01*
X142869400Y-111654000D01*
G75*
G02*
X142971000Y-111552400I101600J0D01*
G01*
X143871000Y-111552400D01*
G75*
G02*
X143972600Y-111654000I0J-101600D01*
G01*
X143972600Y-112354000D01*
G75*
G02*
X143871000Y-112455600I-101600J0D01*
G01*
G37*
%TD*%
%TO.C,R4*%
G36*
G01*
X144511000Y-93198400D02*
X145411000Y-93198400D01*
G75*
G02*
X145512600Y-93300000I0J-101600D01*
G01*
X145512600Y-94000000D01*
G75*
G02*
X145411000Y-94101600I-101600J0D01*
G01*
X144511000Y-94101600D01*
G75*
G02*
X144409400Y-94000000I0J101600D01*
G01*
X144409400Y-93300000D01*
G75*
G02*
X144511000Y-93198400I101600J0D01*
G01*
G37*
G36*
G01*
X144511000Y-91898400D02*
X145411000Y-91898400D01*
G75*
G02*
X145512600Y-92000000I0J-101600D01*
G01*
X145512600Y-92700000D01*
G75*
G02*
X145411000Y-92801600I-101600J0D01*
G01*
X144511000Y-92801600D01*
G75*
G02*
X144409400Y-92700000I0J101600D01*
G01*
X144409400Y-92000000D01*
G75*
G02*
X144511000Y-91898400I101600J0D01*
G01*
G37*
%TD*%
%TO.C,R3*%
G36*
G01*
X141550000Y-95198400D02*
X142450000Y-95198400D01*
G75*
G02*
X142551600Y-95300000I0J-101600D01*
G01*
X142551600Y-96000000D01*
G75*
G02*
X142450000Y-96101600I-101600J0D01*
G01*
X141550000Y-96101600D01*
G75*
G02*
X141448400Y-96000000I0J101600D01*
G01*
X141448400Y-95300000D01*
G75*
G02*
X141550000Y-95198400I101600J0D01*
G01*
G37*
G36*
G01*
X141550000Y-93898400D02*
X142450000Y-93898400D01*
G75*
G02*
X142551600Y-94000000I0J-101600D01*
G01*
X142551600Y-94700000D01*
G75*
G02*
X142450000Y-94801600I-101600J0D01*
G01*
X141550000Y-94801600D01*
G75*
G02*
X141448400Y-94700000I0J101600D01*
G01*
X141448400Y-94000000D01*
G75*
G02*
X141550000Y-93898400I101600J0D01*
G01*
G37*
%TD*%
%TO.C,R2*%
G36*
G01*
X151450000Y-95915200D02*
X150550000Y-95915200D01*
G75*
G02*
X150448400Y-95813600I0J101600D01*
G01*
X150448400Y-95113600D01*
G75*
G02*
X150550000Y-95012000I101600J0D01*
G01*
X151450000Y-95012000D01*
G75*
G02*
X151551600Y-95113600I0J-101600D01*
G01*
X151551600Y-95813600D01*
G75*
G02*
X151450000Y-95915200I-101600J0D01*
G01*
G37*
G36*
G01*
X151450000Y-97215200D02*
X150550000Y-97215200D01*
G75*
G02*
X150448400Y-97113600I0J101600D01*
G01*
X150448400Y-96413600D01*
G75*
G02*
X150550000Y-96312000I101600J0D01*
G01*
X151450000Y-96312000D01*
G75*
G02*
X151551600Y-96413600I0J-101600D01*
G01*
X151551600Y-97113600D01*
G75*
G02*
X151450000Y-97215200I-101600J0D01*
G01*
G37*
%TD*%
%TO.C,R1*%
G36*
G01*
X156571000Y-103535600D02*
X155671000Y-103535600D01*
G75*
G02*
X155569400Y-103434000I0J101600D01*
G01*
X155569400Y-102734000D01*
G75*
G02*
X155671000Y-102632400I101600J0D01*
G01*
X156571000Y-102632400D01*
G75*
G02*
X156672600Y-102734000I0J-101600D01*
G01*
X156672600Y-103434000D01*
G75*
G02*
X156571000Y-103535600I-101600J0D01*
G01*
G37*
G36*
G01*
X156571000Y-104835600D02*
X155671000Y-104835600D01*
G75*
G02*
X155569400Y-104734000I0J101600D01*
G01*
X155569400Y-104034000D01*
G75*
G02*
X155671000Y-103932400I101600J0D01*
G01*
X156571000Y-103932400D01*
G75*
G02*
X156672600Y-104034000I0J-101600D01*
G01*
X156672600Y-104734000D01*
G75*
G02*
X156571000Y-104835600I-101600J0D01*
G01*
G37*
%TD*%
%TO.C,LED1*%
G36*
G01*
X130850000Y-110498400D02*
X131650000Y-110498400D01*
G75*
G02*
X131751600Y-110600000I0J-101600D01*
G01*
X131751600Y-111400000D01*
G75*
G02*
X131650000Y-111501600I-101600J0D01*
G01*
X130850000Y-111501600D01*
G75*
G02*
X130748400Y-111400000I0J101600D01*
G01*
X130748400Y-110600000D01*
G75*
G02*
X130850000Y-110498400I101600J0D01*
G01*
G37*
G36*
G01*
X132350000Y-110498400D02*
X133150000Y-110498400D01*
G75*
G02*
X133251600Y-110600000I0J-101600D01*
G01*
X133251600Y-111400000D01*
G75*
G02*
X133150000Y-111501600I-101600J0D01*
G01*
X132350000Y-111501600D01*
G75*
G02*
X132248400Y-111400000I0J101600D01*
G01*
X132248400Y-110600000D01*
G75*
G02*
X132350000Y-110498400I101600J0D01*
G01*
G37*
%TD*%
%TO.C,JP4*%
G36*
G01*
X134242800Y-107635000D02*
X134242800Y-106365000D01*
G75*
G02*
X134344400Y-106263400I101600J0D01*
G01*
X134979400Y-106263400D01*
G75*
G02*
X135081000Y-106365000I0J-101600D01*
G01*
X135081000Y-107635000D01*
G75*
G02*
X134979400Y-107736600I-101600J0D01*
G01*
X134344400Y-107736600D01*
G75*
G02*
X134242800Y-107635000I0J101600D01*
G01*
G37*
G36*
G01*
X133419000Y-107635000D02*
X133419000Y-106365000D01*
G75*
G02*
X133520600Y-106263400I101600J0D01*
G01*
X134155600Y-106263400D01*
G75*
G02*
X134257200Y-106365000I0J-101600D01*
G01*
X134257200Y-107635000D01*
G75*
G02*
X134155600Y-107736600I-101600J0D01*
G01*
X133520600Y-107736600D01*
G75*
G02*
X133419000Y-107635000I0J101600D01*
G01*
G37*
%TD*%
D10*
%TO.C,JP3*%
X168821000Y-96114000D03*
X168821000Y-98654000D03*
X168821000Y-101194000D03*
X168821000Y-103734000D03*
X168821000Y-106274000D03*
X168821000Y-108814000D03*
X168821000Y-111354000D03*
%TD*%
%TO.C,JP2*%
X158661000Y-88493600D03*
X156121000Y-88493600D03*
X153581000Y-88493600D03*
X151041000Y-88493600D03*
X148501000Y-88493600D03*
X145961000Y-88493600D03*
X143421000Y-88493600D03*
X140881000Y-88493600D03*
X138341000Y-88493600D03*
X135801000Y-88493600D03*
%TD*%
%TO.C,JP1*%
X135801000Y-121514000D03*
X138341000Y-121514000D03*
X140881000Y-121514000D03*
X143421000Y-121514000D03*
X145961000Y-121514000D03*
X148501000Y-121514000D03*
X151041000Y-121514000D03*
X153581000Y-121514000D03*
X156121000Y-121514000D03*
X158661000Y-121514000D03*
%TD*%
%TO.C,C24*%
G36*
G01*
X139550000Y-115898400D02*
X140450000Y-115898400D01*
G75*
G02*
X140551600Y-116000000I0J-101600D01*
G01*
X140551600Y-116700000D01*
G75*
G02*
X140450000Y-116801600I-101600J0D01*
G01*
X139550000Y-116801600D01*
G75*
G02*
X139448400Y-116700000I0J101600D01*
G01*
X139448400Y-116000000D01*
G75*
G02*
X139550000Y-115898400I101600J0D01*
G01*
G37*
G36*
G01*
X139550000Y-117198400D02*
X140450000Y-117198400D01*
G75*
G02*
X140551600Y-117300000I0J-101600D01*
G01*
X140551600Y-118000000D01*
G75*
G02*
X140450000Y-118101600I-101600J0D01*
G01*
X139550000Y-118101600D01*
G75*
G02*
X139448400Y-118000000I0J101600D01*
G01*
X139448400Y-117300000D01*
G75*
G02*
X139550000Y-117198400I101600J0D01*
G01*
G37*
%TD*%
%TO.C,C23*%
G36*
G01*
X136902600Y-111550000D02*
X136902600Y-112450000D01*
G75*
G02*
X136801000Y-112551600I-101600J0D01*
G01*
X136101000Y-112551600D01*
G75*
G02*
X135999400Y-112450000I0J101600D01*
G01*
X135999400Y-111550000D01*
G75*
G02*
X136101000Y-111448400I101600J0D01*
G01*
X136801000Y-111448400D01*
G75*
G02*
X136902600Y-111550000I0J-101600D01*
G01*
G37*
G36*
G01*
X135602600Y-111550000D02*
X135602600Y-112450000D01*
G75*
G02*
X135501000Y-112551600I-101600J0D01*
G01*
X134801000Y-112551600D01*
G75*
G02*
X134699400Y-112450000I0J101600D01*
G01*
X134699400Y-111550000D01*
G75*
G02*
X134801000Y-111448400I101600J0D01*
G01*
X135501000Y-111448400D01*
G75*
G02*
X135602600Y-111550000I0J-101600D01*
G01*
G37*
%TD*%
%TO.C,C22*%
G36*
G01*
X153779400Y-102914000D02*
X153779400Y-102014000D01*
G75*
G02*
X153881000Y-101912400I101600J0D01*
G01*
X154581000Y-101912400D01*
G75*
G02*
X154682600Y-102014000I0J-101600D01*
G01*
X154682600Y-102914000D01*
G75*
G02*
X154581000Y-103015600I-101600J0D01*
G01*
X153881000Y-103015600D01*
G75*
G02*
X153779400Y-102914000I0J101600D01*
G01*
G37*
G36*
G01*
X152479400Y-102914000D02*
X152479400Y-102014000D01*
G75*
G02*
X152581000Y-101912400I101600J0D01*
G01*
X153281000Y-101912400D01*
G75*
G02*
X153382600Y-102014000I0J-101600D01*
G01*
X153382600Y-102914000D01*
G75*
G02*
X153281000Y-103015600I-101600J0D01*
G01*
X152581000Y-103015600D01*
G75*
G02*
X152479400Y-102914000I0J101600D01*
G01*
G37*
%TD*%
%TO.C,C21*%
G36*
G01*
X153779400Y-106724000D02*
X153779400Y-105824000D01*
G75*
G02*
X153881000Y-105722400I101600J0D01*
G01*
X154581000Y-105722400D01*
G75*
G02*
X154682600Y-105824000I0J-101600D01*
G01*
X154682600Y-106724000D01*
G75*
G02*
X154581000Y-106825600I-101600J0D01*
G01*
X153881000Y-106825600D01*
G75*
G02*
X153779400Y-106724000I0J101600D01*
G01*
G37*
G36*
G01*
X152479400Y-106724000D02*
X152479400Y-105824000D01*
G75*
G02*
X152581000Y-105722400I101600J0D01*
G01*
X153281000Y-105722400D01*
G75*
G02*
X153382600Y-105824000I0J-101600D01*
G01*
X153382600Y-106724000D01*
G75*
G02*
X153281000Y-106825600I-101600J0D01*
G01*
X152581000Y-106825600D01*
G75*
G02*
X152479400Y-106724000I0J101600D01*
G01*
G37*
%TD*%
%TO.C,C20*%
G36*
G01*
X145511000Y-111552400D02*
X146411000Y-111552400D01*
G75*
G02*
X146512600Y-111654000I0J-101600D01*
G01*
X146512600Y-112354000D01*
G75*
G02*
X146411000Y-112455600I-101600J0D01*
G01*
X145511000Y-112455600D01*
G75*
G02*
X145409400Y-112354000I0J101600D01*
G01*
X145409400Y-111654000D01*
G75*
G02*
X145511000Y-111552400I101600J0D01*
G01*
G37*
G36*
G01*
X145511000Y-110252400D02*
X146411000Y-110252400D01*
G75*
G02*
X146512600Y-110354000I0J-101600D01*
G01*
X146512600Y-111054000D01*
G75*
G02*
X146411000Y-111155600I-101600J0D01*
G01*
X145511000Y-111155600D01*
G75*
G02*
X145409400Y-111054000I0J101600D01*
G01*
X145409400Y-110354000D01*
G75*
G02*
X145511000Y-110252400I101600J0D01*
G01*
G37*
%TD*%
%TO.C,C19*%
G36*
G01*
X138142600Y-105824000D02*
X138142600Y-106724000D01*
G75*
G02*
X138041000Y-106825600I-101600J0D01*
G01*
X137341000Y-106825600D01*
G75*
G02*
X137239400Y-106724000I0J101600D01*
G01*
X137239400Y-105824000D01*
G75*
G02*
X137341000Y-105722400I101600J0D01*
G01*
X138041000Y-105722400D01*
G75*
G02*
X138142600Y-105824000I0J-101600D01*
G01*
G37*
G36*
G01*
X139442600Y-105824000D02*
X139442600Y-106724000D01*
G75*
G02*
X139341000Y-106825600I-101600J0D01*
G01*
X138641000Y-106825600D01*
G75*
G02*
X138539400Y-106724000I0J101600D01*
G01*
X138539400Y-105824000D01*
G75*
G02*
X138641000Y-105722400I101600J0D01*
G01*
X139341000Y-105722400D01*
G75*
G02*
X139442600Y-105824000I0J-101600D01*
G01*
G37*
%TD*%
%TO.C,C18*%
G36*
G01*
X138142600Y-103284000D02*
X138142600Y-104184000D01*
G75*
G02*
X138041000Y-104285600I-101600J0D01*
G01*
X137341000Y-104285600D01*
G75*
G02*
X137239400Y-104184000I0J101600D01*
G01*
X137239400Y-103284000D01*
G75*
G02*
X137341000Y-103182400I101600J0D01*
G01*
X138041000Y-103182400D01*
G75*
G02*
X138142600Y-103284000I0J-101600D01*
G01*
G37*
G36*
G01*
X139442600Y-103284000D02*
X139442600Y-104184000D01*
G75*
G02*
X139341000Y-104285600I-101600J0D01*
G01*
X138641000Y-104285600D01*
G75*
G02*
X138539400Y-104184000I0J101600D01*
G01*
X138539400Y-103284000D01*
G75*
G02*
X138641000Y-103182400I101600J0D01*
G01*
X139341000Y-103182400D01*
G75*
G02*
X139442600Y-103284000I0J-101600D01*
G01*
G37*
%TD*%
%TO.C,C17*%
G36*
G01*
X138142600Y-100744000D02*
X138142600Y-101644000D01*
G75*
G02*
X138041000Y-101745600I-101600J0D01*
G01*
X137341000Y-101745600D01*
G75*
G02*
X137239400Y-101644000I0J101600D01*
G01*
X137239400Y-100744000D01*
G75*
G02*
X137341000Y-100642400I101600J0D01*
G01*
X138041000Y-100642400D01*
G75*
G02*
X138142600Y-100744000I0J-101600D01*
G01*
G37*
G36*
G01*
X139442600Y-100744000D02*
X139442600Y-101644000D01*
G75*
G02*
X139341000Y-101745600I-101600J0D01*
G01*
X138641000Y-101745600D01*
G75*
G02*
X138539400Y-101644000I0J101600D01*
G01*
X138539400Y-100744000D01*
G75*
G02*
X138641000Y-100642400I101600J0D01*
G01*
X139341000Y-100642400D01*
G75*
G02*
X139442600Y-100744000I0J-101600D01*
G01*
G37*
%TD*%
%TO.C,C16*%
G36*
G01*
X146681000Y-92801600D02*
X145781000Y-92801600D01*
G75*
G02*
X145679400Y-92700000I0J101600D01*
G01*
X145679400Y-92000000D01*
G75*
G02*
X145781000Y-91898400I101600J0D01*
G01*
X146681000Y-91898400D01*
G75*
G02*
X146782600Y-92000000I0J-101600D01*
G01*
X146782600Y-92700000D01*
G75*
G02*
X146681000Y-92801600I-101600J0D01*
G01*
G37*
G36*
G01*
X146681000Y-94101600D02*
X145781000Y-94101600D01*
G75*
G02*
X145679400Y-94000000I0J101600D01*
G01*
X145679400Y-93300000D01*
G75*
G02*
X145781000Y-93198400I101600J0D01*
G01*
X146681000Y-93198400D01*
G75*
G02*
X146782600Y-93300000I0J-101600D01*
G01*
X146782600Y-94000000D01*
G75*
G02*
X146681000Y-94101600I-101600J0D01*
G01*
G37*
%TD*%
%TO.C,C15*%
G36*
G01*
X153779400Y-101644000D02*
X153779400Y-100744000D01*
G75*
G02*
X153881000Y-100642400I101600J0D01*
G01*
X154581000Y-100642400D01*
G75*
G02*
X154682600Y-100744000I0J-101600D01*
G01*
X154682600Y-101644000D01*
G75*
G02*
X154581000Y-101745600I-101600J0D01*
G01*
X153881000Y-101745600D01*
G75*
G02*
X153779400Y-101644000I0J101600D01*
G01*
G37*
G36*
G01*
X152479400Y-101644000D02*
X152479400Y-100744000D01*
G75*
G02*
X152581000Y-100642400I101600J0D01*
G01*
X153281000Y-100642400D01*
G75*
G02*
X153382600Y-100744000I0J-101600D01*
G01*
X153382600Y-101644000D01*
G75*
G02*
X153281000Y-101745600I-101600J0D01*
G01*
X152581000Y-101745600D01*
G75*
G02*
X152479400Y-101644000I0J101600D01*
G01*
G37*
%TD*%
%TO.C,C14*%
G36*
G01*
X146781000Y-112822400D02*
X147681000Y-112822400D01*
G75*
G02*
X147782600Y-112924000I0J-101600D01*
G01*
X147782600Y-113624000D01*
G75*
G02*
X147681000Y-113725600I-101600J0D01*
G01*
X146781000Y-113725600D01*
G75*
G02*
X146679400Y-113624000I0J101600D01*
G01*
X146679400Y-112924000D01*
G75*
G02*
X146781000Y-112822400I101600J0D01*
G01*
G37*
G36*
G01*
X146781000Y-111522400D02*
X147681000Y-111522400D01*
G75*
G02*
X147782600Y-111624000I0J-101600D01*
G01*
X147782600Y-112324000D01*
G75*
G02*
X147681000Y-112425600I-101600J0D01*
G01*
X146781000Y-112425600D01*
G75*
G02*
X146679400Y-112324000I0J101600D01*
G01*
X146679400Y-111624000D01*
G75*
G02*
X146781000Y-111522400I101600J0D01*
G01*
G37*
%TD*%
%TO.C,C13*%
G36*
G01*
X144241000Y-111552400D02*
X145141000Y-111552400D01*
G75*
G02*
X145242600Y-111654000I0J-101600D01*
G01*
X145242600Y-112354000D01*
G75*
G02*
X145141000Y-112455600I-101600J0D01*
G01*
X144241000Y-112455600D01*
G75*
G02*
X144139400Y-112354000I0J101600D01*
G01*
X144139400Y-111654000D01*
G75*
G02*
X144241000Y-111552400I101600J0D01*
G01*
G37*
G36*
G01*
X144241000Y-110252400D02*
X145141000Y-110252400D01*
G75*
G02*
X145242600Y-110354000I0J-101600D01*
G01*
X145242600Y-111054000D01*
G75*
G02*
X145141000Y-111155600I-101600J0D01*
G01*
X144241000Y-111155600D01*
G75*
G02*
X144139400Y-111054000I0J101600D01*
G01*
X144139400Y-110354000D01*
G75*
G02*
X144241000Y-110252400I101600J0D01*
G01*
G37*
%TD*%
%TO.C,C12*%
G36*
G01*
X136902600Y-109550000D02*
X136902600Y-110450000D01*
G75*
G02*
X136801000Y-110551600I-101600J0D01*
G01*
X136101000Y-110551600D01*
G75*
G02*
X135999400Y-110450000I0J101600D01*
G01*
X135999400Y-109550000D01*
G75*
G02*
X136101000Y-109448400I101600J0D01*
G01*
X136801000Y-109448400D01*
G75*
G02*
X136902600Y-109550000I0J-101600D01*
G01*
G37*
G36*
G01*
X135602600Y-109550000D02*
X135602600Y-110450000D01*
G75*
G02*
X135501000Y-110551600I-101600J0D01*
G01*
X134801000Y-110551600D01*
G75*
G02*
X134699400Y-110450000I0J101600D01*
G01*
X134699400Y-109550000D01*
G75*
G02*
X134801000Y-109448400I101600J0D01*
G01*
X135501000Y-109448400D01*
G75*
G02*
X135602600Y-109550000I0J-101600D01*
G01*
G37*
%TD*%
%TO.C,C11*%
G36*
G01*
X134981000Y-98455200D02*
X134081000Y-98455200D01*
G75*
G02*
X133979400Y-98353600I0J101600D01*
G01*
X133979400Y-97653600D01*
G75*
G02*
X134081000Y-97552000I101600J0D01*
G01*
X134981000Y-97552000D01*
G75*
G02*
X135082600Y-97653600I0J-101600D01*
G01*
X135082600Y-98353600D01*
G75*
G02*
X134981000Y-98455200I-101600J0D01*
G01*
G37*
G36*
G01*
X134981000Y-99755200D02*
X134081000Y-99755200D01*
G75*
G02*
X133979400Y-99653600I0J101600D01*
G01*
X133979400Y-98953600D01*
G75*
G02*
X134081000Y-98852000I101600J0D01*
G01*
X134981000Y-98852000D01*
G75*
G02*
X135082600Y-98953600I0J-101600D01*
G01*
X135082600Y-99653600D01*
G75*
G02*
X134981000Y-99755200I-101600J0D01*
G01*
G37*
%TD*%
%TO.C,C10*%
G36*
G01*
X136251000Y-98455200D02*
X135351000Y-98455200D01*
G75*
G02*
X135249400Y-98353600I0J101600D01*
G01*
X135249400Y-97653600D01*
G75*
G02*
X135351000Y-97552000I101600J0D01*
G01*
X136251000Y-97552000D01*
G75*
G02*
X136352600Y-97653600I0J-101600D01*
G01*
X136352600Y-98353600D01*
G75*
G02*
X136251000Y-98455200I-101600J0D01*
G01*
G37*
G36*
G01*
X136251000Y-99755200D02*
X135351000Y-99755200D01*
G75*
G02*
X135249400Y-99653600I0J101600D01*
G01*
X135249400Y-98953600D01*
G75*
G02*
X135351000Y-98852000I101600J0D01*
G01*
X136251000Y-98852000D01*
G75*
G02*
X136352600Y-98953600I0J-101600D01*
G01*
X136352600Y-99653600D01*
G75*
G02*
X136251000Y-99755200I-101600J0D01*
G01*
G37*
%TD*%
%TO.C,C9*%
G36*
G01*
X138539400Y-105454000D02*
X138539400Y-104554000D01*
G75*
G02*
X138641000Y-104452400I101600J0D01*
G01*
X139341000Y-104452400D01*
G75*
G02*
X139442600Y-104554000I0J-101600D01*
G01*
X139442600Y-105454000D01*
G75*
G02*
X139341000Y-105555600I-101600J0D01*
G01*
X138641000Y-105555600D01*
G75*
G02*
X138539400Y-105454000I0J101600D01*
G01*
G37*
G36*
G01*
X137239400Y-105454000D02*
X137239400Y-104554000D01*
G75*
G02*
X137341000Y-104452400I101600J0D01*
G01*
X138041000Y-104452400D01*
G75*
G02*
X138142600Y-104554000I0J-101600D01*
G01*
X138142600Y-105454000D01*
G75*
G02*
X138041000Y-105555600I-101600J0D01*
G01*
X137341000Y-105555600D01*
G75*
G02*
X137239400Y-105454000I0J101600D01*
G01*
G37*
%TD*%
%TO.C,C8*%
G36*
G01*
X160751000Y-105202400D02*
X161651000Y-105202400D01*
G75*
G02*
X161752600Y-105304000I0J-101600D01*
G01*
X161752600Y-106004000D01*
G75*
G02*
X161651000Y-106105600I-101600J0D01*
G01*
X160751000Y-106105600D01*
G75*
G02*
X160649400Y-106004000I0J101600D01*
G01*
X160649400Y-105304000D01*
G75*
G02*
X160751000Y-105202400I101600J0D01*
G01*
G37*
G36*
G01*
X160751000Y-103902400D02*
X161651000Y-103902400D01*
G75*
G02*
X161752600Y-104004000I0J-101600D01*
G01*
X161752600Y-104704000D01*
G75*
G02*
X161651000Y-104805600I-101600J0D01*
G01*
X160751000Y-104805600D01*
G75*
G02*
X160649400Y-104704000I0J101600D01*
G01*
X160649400Y-104004000D01*
G75*
G02*
X160751000Y-103902400I101600J0D01*
G01*
G37*
%TD*%
%TO.C,C7*%
G36*
G01*
X159111000Y-97185200D02*
X158211000Y-97185200D01*
G75*
G02*
X158109400Y-97083600I0J101600D01*
G01*
X158109400Y-96383600D01*
G75*
G02*
X158211000Y-96282000I101600J0D01*
G01*
X159111000Y-96282000D01*
G75*
G02*
X159212600Y-96383600I0J-101600D01*
G01*
X159212600Y-97083600D01*
G75*
G02*
X159111000Y-97185200I-101600J0D01*
G01*
G37*
G36*
G01*
X159111000Y-98485200D02*
X158211000Y-98485200D01*
G75*
G02*
X158109400Y-98383600I0J101600D01*
G01*
X158109400Y-97683600D01*
G75*
G02*
X158211000Y-97582000I101600J0D01*
G01*
X159111000Y-97582000D01*
G75*
G02*
X159212600Y-97683600I0J-101600D01*
G01*
X159212600Y-98383600D01*
G75*
G02*
X159111000Y-98485200I-101600J0D01*
G01*
G37*
%TD*%
%TO.C,C6*%
G36*
G01*
X155752600Y-110523999D02*
X155752600Y-111924001D01*
G75*
G02*
X155651001Y-112025600I-101599J0D01*
G01*
X154050999Y-112025600D01*
G75*
G02*
X153949400Y-111924001I0J101599D01*
G01*
X153949400Y-110523999D01*
G75*
G02*
X154050999Y-110422400I101599J0D01*
G01*
X155651001Y-110422400D01*
G75*
G02*
X155752600Y-110523999I0J-101599D01*
G01*
G37*
G36*
G01*
X155752600Y-113323999D02*
X155752600Y-114724001D01*
G75*
G02*
X155651001Y-114825600I-101599J0D01*
G01*
X154050999Y-114825600D01*
G75*
G02*
X153949400Y-114724001I0J101599D01*
G01*
X153949400Y-113323999D01*
G75*
G02*
X154050999Y-113222400I101599J0D01*
G01*
X155651001Y-113222400D01*
G75*
G02*
X155752600Y-113323999I0J-101599D01*
G01*
G37*
%TD*%
%TO.C,C5*%
G36*
G01*
X151861000Y-112822400D02*
X152761000Y-112822400D01*
G75*
G02*
X152862600Y-112924000I0J-101600D01*
G01*
X152862600Y-113624000D01*
G75*
G02*
X152761000Y-113725600I-101600J0D01*
G01*
X151861000Y-113725600D01*
G75*
G02*
X151759400Y-113624000I0J101600D01*
G01*
X151759400Y-112924000D01*
G75*
G02*
X151861000Y-112822400I101600J0D01*
G01*
G37*
G36*
G01*
X151861000Y-111522400D02*
X152761000Y-111522400D01*
G75*
G02*
X152862600Y-111624000I0J-101600D01*
G01*
X152862600Y-112324000D01*
G75*
G02*
X152761000Y-112425600I-101600J0D01*
G01*
X151861000Y-112425600D01*
G75*
G02*
X151759400Y-112324000I0J101600D01*
G01*
X151759400Y-111624000D01*
G75*
G02*
X151861000Y-111522400I101600J0D01*
G01*
G37*
%TD*%
%TO.C,C4*%
G36*
G01*
X155219400Y-99483601D02*
X155219400Y-98083599D01*
G75*
G02*
X155320999Y-97982000I101599J0D01*
G01*
X156921001Y-97982000D01*
G75*
G02*
X157022600Y-98083599I0J-101599D01*
G01*
X157022600Y-99483601D01*
G75*
G02*
X156921001Y-99585200I-101599J0D01*
G01*
X155320999Y-99585200D01*
G75*
G02*
X155219400Y-99483601I0J101599D01*
G01*
G37*
G36*
G01*
X155219400Y-96683601D02*
X155219400Y-95283599D01*
G75*
G02*
X155320999Y-95182000I101599J0D01*
G01*
X156921001Y-95182000D01*
G75*
G02*
X157022600Y-95283599I0J-101599D01*
G01*
X157022600Y-96683601D01*
G75*
G02*
X156921001Y-96785200I-101599J0D01*
G01*
X155320999Y-96785200D01*
G75*
G02*
X155219400Y-96683601I0J101599D01*
G01*
G37*
%TD*%
%TO.C,C3*%
G36*
G01*
X160751000Y-102662400D02*
X161651000Y-102662400D01*
G75*
G02*
X161752600Y-102764000I0J-101600D01*
G01*
X161752600Y-103464000D01*
G75*
G02*
X161651000Y-103565600I-101600J0D01*
G01*
X160751000Y-103565600D01*
G75*
G02*
X160649400Y-103464000I0J101600D01*
G01*
X160649400Y-102764000D01*
G75*
G02*
X160751000Y-102662400I101600J0D01*
G01*
G37*
G36*
G01*
X160751000Y-101362400D02*
X161651000Y-101362400D01*
G75*
G02*
X161752600Y-101464000I0J-101600D01*
G01*
X161752600Y-102164000D01*
G75*
G02*
X161651000Y-102265600I-101600J0D01*
G01*
X160751000Y-102265600D01*
G75*
G02*
X160649400Y-102164000I0J101600D01*
G01*
X160649400Y-101464000D01*
G75*
G02*
X160751000Y-101362400I101600J0D01*
G01*
G37*
%TD*%
%TO.C,C2*%
G36*
G01*
X130522600Y-100744000D02*
X130522600Y-101644000D01*
G75*
G02*
X130421000Y-101745600I-101600J0D01*
G01*
X129721000Y-101745600D01*
G75*
G02*
X129619400Y-101644000I0J101600D01*
G01*
X129619400Y-100744000D01*
G75*
G02*
X129721000Y-100642400I101600J0D01*
G01*
X130421000Y-100642400D01*
G75*
G02*
X130522600Y-100744000I0J-101600D01*
G01*
G37*
G36*
G01*
X131822600Y-100744000D02*
X131822600Y-101644000D01*
G75*
G02*
X131721000Y-101745600I-101600J0D01*
G01*
X131021000Y-101745600D01*
G75*
G02*
X130919400Y-101644000I0J101600D01*
G01*
X130919400Y-100744000D01*
G75*
G02*
X131021000Y-100642400I101600J0D01*
G01*
X131721000Y-100642400D01*
G75*
G02*
X131822600Y-100744000I0J-101600D01*
G01*
G37*
%TD*%
%TO.C,C1*%
G36*
G01*
X132821001Y-104635600D02*
X131420999Y-104635600D01*
G75*
G02*
X131319400Y-104534001I0J101599D01*
G01*
X131319400Y-102933999D01*
G75*
G02*
X131420999Y-102832400I101599J0D01*
G01*
X132821001Y-102832400D01*
G75*
G02*
X132922600Y-102933999I0J-101599D01*
G01*
X132922600Y-104534001D01*
G75*
G02*
X132821001Y-104635600I-101599J0D01*
G01*
G37*
G36*
G01*
X130021001Y-104635600D02*
X128620999Y-104635600D01*
G75*
G02*
X128519400Y-104534001I0J101599D01*
G01*
X128519400Y-102933999D01*
G75*
G02*
X128620999Y-102832400I101599J0D01*
G01*
X130021001Y-102832400D01*
G75*
G02*
X130122600Y-102933999I0J-101599D01*
G01*
X130122600Y-104534001D01*
G75*
G02*
X130021001Y-104635600I-101599J0D01*
G01*
G37*
%TD*%
M02*
