%TF.GenerationSoftware,KiCad,Pcbnew,5.1.8-db9833491~87~ubuntu18.04.1*%
%TF.CreationDate,2020-11-08T14:36:30-03:00*%
%TF.ProjectId,DCI_TP,4443495f-5450-42e6-9b69-6361645f7063,1.0*%
%TF.SameCoordinates,Original*%
%TF.FileFunction,Copper,L1,Top*%
%TF.FilePolarity,Positive*%
%FSLAX46Y46*%
G04 Gerber Fmt 4.6, Leading zero omitted, Abs format (unit mm)*
G04 Created by KiCad (PCBNEW 5.1.8-db9833491~87~ubuntu18.04.1) date 2020-11-08 14:36:30*
%MOMM*%
%LPD*%
G01*
G04 APERTURE LIST*
%TA.AperFunction,SMDPad,CuDef*%
%ADD10R,1.100000X1.900000*%
%TD*%
%TA.AperFunction,SMDPad,CuDef*%
%ADD11R,0.400000X0.750000*%
%TD*%
%TA.AperFunction,SMDPad,CuDef*%
%ADD12R,0.750000X0.400000*%
%TD*%
%TA.AperFunction,SMDPad,CuDef*%
%ADD13R,1.143000X0.254000*%
%TD*%
%TA.AperFunction,SMDPad,CuDef*%
%ADD14R,0.254000X1.143000*%
%TD*%
%TA.AperFunction,SMDPad,CuDef*%
%ADD15R,0.550000X1.200000*%
%TD*%
%TA.AperFunction,SMDPad,CuDef*%
%ADD16R,0.700000X0.900000*%
%TD*%
%TA.AperFunction,SMDPad,CuDef*%
%ADD17R,0.900000X0.700000*%
%TD*%
%TA.AperFunction,SMDPad,CuDef*%
%ADD18R,0.800000X0.800000*%
%TD*%
%TA.AperFunction,SMDPad,CuDef*%
%ADD19R,0.635000X1.270000*%
%TD*%
%TA.AperFunction,ComponentPad*%
%ADD20C,1.879600*%
%TD*%
%TA.AperFunction,SMDPad,CuDef*%
%ADD21R,1.600000X1.400000*%
%TD*%
%TA.AperFunction,SMDPad,CuDef*%
%ADD22R,1.400000X1.600000*%
%TD*%
%TA.AperFunction,ViaPad*%
%ADD23C,0.800000*%
%TD*%
%TA.AperFunction,ViaPad*%
%ADD24C,0.600000*%
%TD*%
%TA.AperFunction,ViaPad*%
%ADD25C,0.700000*%
%TD*%
%TA.AperFunction,Conductor*%
%ADD26C,0.250000*%
%TD*%
G04 APERTURE END LIST*
D10*
%TO.P,Q1,2*%
%TO.N,N/C*%
X159811000Y-101884000D03*
%TO.P,Q1,4*%
X157511000Y-105584000D03*
%TO.P,Q1,3*%
%TO.N,Net-(C3-Pad1)*%
X157511000Y-101884000D03*
%TO.P,Q1,1*%
%TO.N,Net-(C8-Pad1)*%
X159811000Y-105584000D03*
%TD*%
D11*
%TO.P,U$12,5*%
%TO.N,/CVDD*%
X153650000Y-98208600D03*
%TO.P,U$12,4*%
%TO.N,Net-(U$12-Pad4)*%
X152350000Y-98208600D03*
%TO.P,U$12,3*%
%TO.N,/VCC*%
X152350000Y-96558600D03*
%TO.P,U$12,2*%
%TO.N,GND*%
X153000000Y-96558600D03*
%TO.P,U$12,1*%
%TO.N,/VCC*%
X153650000Y-96558600D03*
%TD*%
D12*
%TO.P,U$2,5*%
%TO.N,/AVDD*%
X130825000Y-106894000D03*
%TO.P,U$2,4*%
%TO.N,Net-(U$2-Pad4)*%
X130825000Y-108194000D03*
%TO.P,U$2,3*%
%TO.N,/VCC*%
X129175000Y-108194000D03*
%TO.P,U$2,2*%
%TO.N,/AGND*%
X129175000Y-107544000D03*
%TO.P,U$2,1*%
%TO.N,/VCC*%
X129175000Y-106894000D03*
%TD*%
D13*
%TO.P,U2,48*%
%TO.N,Net-(R13-Pad1)*%
X141711000Y-106484000D03*
%TO.P,U2,47*%
%TO.N,/AGND*%
X141711000Y-105984000D03*
%TO.P,U2,46*%
%TO.N,/LEFT*%
X141711000Y-105484000D03*
%TO.P,U2,45*%
%TO.N,/AVDD*%
X141711000Y-104984000D03*
%TO.P,U2,44*%
%TO.N,Net-(C9-Pad1)*%
X141711000Y-104484000D03*
%TO.P,U2,43*%
%TO.N,/AVDD*%
X141711000Y-103984000D03*
%TO.P,U2,42*%
%TO.N,/GBUF*%
X141711000Y-103484000D03*
%TO.P,U2,41*%
%TO.N,/AGND*%
X141711000Y-102984000D03*
%TO.P,U2,40*%
X141711000Y-102484000D03*
%TO.P,U2,39*%
%TO.N,/RIGHT*%
X141711000Y-101984000D03*
%TO.P,U2,38*%
%TO.N,/AVDD*%
X141711000Y-101484000D03*
%TO.P,U2,37*%
%TO.N,/AGND*%
X141711000Y-100984000D03*
D14*
%TO.P,U2,36*%
%TO.N,/GPIO4*%
X143211000Y-99484000D03*
%TO.P,U2,35*%
%TO.N,/PWR_FLAG*%
X143711000Y-99484000D03*
%TO.P,U2,34*%
%TO.N,/GPIO1*%
X144211000Y-99484000D03*
%TO.P,U2,33*%
%TO.N,/GPIO0*%
X144711000Y-99484000D03*
%TO.P,U2,32*%
%TO.N,/IOVDD*%
X145211000Y-99484000D03*
%TO.P,U2,31*%
%TO.N,/CVDD*%
X145711000Y-99484000D03*
%TO.P,U2,30*%
%TO.N,/SO*%
X146211000Y-99484000D03*
%TO.P,U2,29*%
%TO.N,/SI*%
X146711000Y-99484000D03*
%TO.P,U2,28*%
%TO.N,/SCLK*%
X147211000Y-99484000D03*
%TO.P,U2,27*%
%TO.N,/TX*%
X147711000Y-99484000D03*
%TO.P,U2,26*%
%TO.N,/RX*%
X148211000Y-99484000D03*
%TO.P,U2,25*%
%TO.N,/GPIO5*%
X148711000Y-99484000D03*
D13*
%TO.P,U2,24*%
%TO.N,/CVDD*%
X150211000Y-100984000D03*
%TO.P,U2,23*%
%TO.N,/CS*%
X150211000Y-101484000D03*
%TO.P,U2,22*%
%TO.N,/PWR_FLAG*%
X150211000Y-101984000D03*
%TO.P,U2,21*%
X150211000Y-102484000D03*
%TO.P,U2,20*%
X150211000Y-102984000D03*
%TO.P,U2,19*%
%TO.N,/IOVDD*%
X150211000Y-103484000D03*
%TO.P,U2,18*%
%TO.N,Net-(C3-Pad1)*%
X150211000Y-103984000D03*
%TO.P,U2,17*%
%TO.N,Net-(C8-Pad1)*%
X150211000Y-104484000D03*
%TO.P,U2,16*%
%TO.N,/PWR_FLAG*%
X150211000Y-104984000D03*
%TO.P,U2,15*%
%TO.N,/VCO*%
X150211000Y-105484000D03*
%TO.P,U2,14*%
%TO.N,/IOVDD*%
X150211000Y-105984000D03*
%TO.P,U2,13*%
%TO.N,/BSYNC*%
X150211000Y-106484000D03*
D14*
%TO.P,U2,12*%
%TO.N,/GPIO7*%
X148711000Y-107984000D03*
%TO.P,U2,11*%
%TO.N,/GPIO6*%
X148211000Y-107984000D03*
%TO.P,U2,10*%
%TO.N,/GPIO3*%
X147711000Y-107984000D03*
%TO.P,U2,9*%
%TO.N,/GPIO2*%
X147211000Y-107984000D03*
%TO.P,U2,8*%
%TO.N,/DREQ*%
X146711000Y-107984000D03*
%TO.P,U2,7*%
%TO.N,/CVDD*%
X146211000Y-107984000D03*
%TO.P,U2,6*%
%TO.N,/IOVDD*%
X145711000Y-107984000D03*
%TO.P,U2,5*%
%TO.N,/CVDD*%
X145211000Y-107984000D03*
%TO.P,U2,4*%
%TO.N,/PWR_FLAG*%
X144711000Y-107984000D03*
%TO.P,U2,3*%
%TO.N,/RESET*%
X144211000Y-107984000D03*
%TO.P,U2,2*%
%TO.N,/MICN*%
X143711000Y-107984000D03*
%TO.P,U2,1*%
%TO.N,Net-(R12-Pad1)*%
X143211000Y-107984000D03*
%TD*%
D15*
%TO.P,U1,5*%
%TO.N,/IOVDD*%
X157711000Y-111323900D03*
%TO.P,U1,4*%
%TO.N,Net-(U1-Pad4)*%
X159611000Y-111323900D03*
%TO.P,U1,3*%
%TO.N,/VCC*%
X159611000Y-113924100D03*
%TO.P,U1,2*%
%TO.N,GND*%
X158661000Y-113924100D03*
%TO.P,U1,1*%
%TO.N,/VCC*%
X157711000Y-113924100D03*
%TD*%
D16*
%TO.P,R17,2*%
%TO.N,GND*%
X166931000Y-110084000D03*
%TO.P,R17,1*%
%TO.N,/GPIO6*%
X165631000Y-110084000D03*
%TD*%
%TO.P,R16,2*%
%TO.N,GND*%
X166931000Y-105004000D03*
%TO.P,R16,1*%
%TO.N,/GPIO7*%
X165631000Y-105004000D03*
%TD*%
%TO.P,R15,2*%
%TO.N,GND*%
X166931000Y-99923600D03*
%TO.P,R15,1*%
%TO.N,/GPIO5*%
X165631000Y-99923600D03*
%TD*%
%TO.P,R14,2*%
%TO.N,GND*%
X166931000Y-97383600D03*
%TO.P,R14,1*%
%TO.N,/GPIO4*%
X165631000Y-97383600D03*
%TD*%
%TO.P,R13,1*%
%TO.N,Net-(R13-Pad1)*%
X138991000Y-112000000D03*
%TO.P,R13,2*%
%TO.N,/LINEIN*%
X137691000Y-112000000D03*
%TD*%
D17*
%TO.P,R12,1*%
%TO.N,Net-(R12-Pad1)*%
X141000000Y-113350000D03*
%TO.P,R12,2*%
%TO.N,/MICP*%
X141000000Y-114650000D03*
%TD*%
D16*
%TO.P,R11,2*%
%TO.N,GND*%
X149121000Y-112624000D03*
%TO.P,R11,1*%
%TO.N,/GPIO2*%
X150421000Y-112624000D03*
%TD*%
%TO.P,R10,2*%
%TO.N,GND*%
X149121000Y-111354000D03*
%TO.P,R10,1*%
%TO.N,/GPIO3*%
X150421000Y-111354000D03*
%TD*%
%TO.P,R9,2*%
%TO.N,Net-(C12-Pad1)*%
X137691000Y-110000000D03*
%TO.P,R9,1*%
%TO.N,/LEFT*%
X138991000Y-110000000D03*
%TD*%
%TO.P,R8,2*%
%TO.N,Net-(LED1-PadA)*%
X128801000Y-111000000D03*
%TO.P,R8,1*%
%TO.N,/VCC*%
X130101000Y-111000000D03*
%TD*%
D17*
%TO.P,R7,2*%
%TO.N,Net-(C11-Pad1)*%
X134531000Y-101844000D03*
%TO.P,R7,1*%
%TO.N,/GBUF*%
X134531000Y-100544000D03*
%TD*%
%TO.P,R6,2*%
%TO.N,Net-(C10-Pad1)*%
X135801000Y-101844000D03*
%TO.P,R6,1*%
%TO.N,/RIGHT*%
X135801000Y-100544000D03*
%TD*%
%TO.P,R5,2*%
%TO.N,/RESET*%
X143421000Y-110704000D03*
%TO.P,R5,1*%
%TO.N,/IOVDD*%
X143421000Y-112004000D03*
%TD*%
%TO.P,R4,2*%
%TO.N,GND*%
X144961000Y-93650000D03*
%TO.P,R4,1*%
%TO.N,/GPIO0*%
X144961000Y-92350000D03*
%TD*%
%TO.P,R3,2*%
%TO.N,GND*%
X142000000Y-95650000D03*
%TO.P,R3,1*%
%TO.N,/GPIO1*%
X142000000Y-94350000D03*
%TD*%
%TO.P,R2,2*%
%TO.N,/RX*%
X151000000Y-95463600D03*
%TO.P,R2,1*%
%TO.N,/IOVDD*%
X151000000Y-96763600D03*
%TD*%
%TO.P,R1,2*%
%TO.N,Net-(C8-Pad1)*%
X156121000Y-103084000D03*
%TO.P,R1,1*%
%TO.N,Net-(C3-Pad1)*%
X156121000Y-104384000D03*
%TD*%
D18*
%TO.P,LED1,A*%
%TO.N,Net-(LED1-PadA)*%
X131250000Y-111000000D03*
%TO.P,LED1,C*%
%TO.N,GND*%
X132750000Y-111000000D03*
%TD*%
D19*
%TO.P,JP4,2*%
%TO.N,/AGND*%
X134661900Y-107000000D03*
%TO.P,JP4,1*%
%TO.N,GND*%
X133838100Y-107000000D03*
%TD*%
D20*
%TO.P,JP3,7*%
%TO.N,/AGND*%
X168821000Y-96114000D03*
%TO.P,JP3,6*%
%TO.N,/GPIO4*%
X168821000Y-98654000D03*
%TO.P,JP3,5*%
%TO.N,/GPIO5*%
X168821000Y-101194000D03*
%TO.P,JP3,4*%
%TO.N,/VCO*%
X168821000Y-103734000D03*
%TO.P,JP3,3*%
%TO.N,/GPIO7*%
X168821000Y-106274000D03*
%TO.P,JP3,2*%
%TO.N,/GPIO6*%
X168821000Y-108814000D03*
%TO.P,JP3,1*%
%TO.N,/LINEIN*%
X168821000Y-111354000D03*
%TD*%
%TO.P,JP2,10*%
%TO.N,/CS*%
X158661000Y-88493600D03*
%TO.P,JP2,9*%
%TO.N,/SCLK*%
X156121000Y-88493600D03*
%TO.P,JP2,8*%
%TO.N,/SI*%
X153581000Y-88493600D03*
%TO.P,JP2,7*%
%TO.N,/SO*%
X151041000Y-88493600D03*
%TO.P,JP2,6*%
%TO.N,/GPIO0*%
X148501000Y-88493600D03*
%TO.P,JP2,5*%
%TO.N,/GPIO1*%
X145961000Y-88493600D03*
%TO.P,JP2,4*%
%TO.N,/LEFT*%
X143421000Y-88493600D03*
%TO.P,JP2,3*%
%TO.N,/GBUF*%
X140881000Y-88493600D03*
%TO.P,JP2,2*%
%TO.N,/RIGHT*%
X138341000Y-88493600D03*
%TO.P,JP2,1*%
%TO.N,/VCC*%
X135801000Y-88493600D03*
%TD*%
%TO.P,JP1,10*%
%TO.N,/MICP*%
X135801000Y-121514000D03*
%TO.P,JP1,9*%
%TO.N,/MICN*%
X138341000Y-121514000D03*
%TO.P,JP1,8*%
%TO.N,/RESET*%
X140881000Y-121514000D03*
%TO.P,JP1,7*%
%TO.N,/DREQ*%
X143421000Y-121514000D03*
%TO.P,JP1,6*%
%TO.N,/GPIO2*%
X145961000Y-121514000D03*
%TO.P,JP1,5*%
%TO.N,/GPIO3*%
X148501000Y-121514000D03*
%TO.P,JP1,4*%
%TO.N,/BSYNC*%
X151041000Y-121514000D03*
%TO.P,JP1,3*%
%TO.N,/TX*%
X153581000Y-121514000D03*
%TO.P,JP1,2*%
%TO.N,/RX*%
X156121000Y-121514000D03*
%TO.P,JP1,1*%
%TO.N,GND*%
X158661000Y-121514000D03*
%TD*%
D17*
%TO.P,C24,1*%
%TO.N,/MICP*%
X140000000Y-116350000D03*
%TO.P,C24,2*%
%TO.N,/AGND*%
X140000000Y-117650000D03*
%TD*%
D16*
%TO.P,C23,1*%
%TO.N,/LINEIN*%
X136451000Y-112000000D03*
%TO.P,C23,2*%
%TO.N,/AGND*%
X135151000Y-112000000D03*
%TD*%
%TO.P,C22,2*%
%TO.N,GND*%
X154231000Y-102464000D03*
%TO.P,C22,1*%
%TO.N,/IOVDD*%
X152931000Y-102464000D03*
%TD*%
%TO.P,C21,2*%
%TO.N,GND*%
X154231000Y-106274000D03*
%TO.P,C21,1*%
%TO.N,/IOVDD*%
X152931000Y-106274000D03*
%TD*%
D17*
%TO.P,C20,2*%
%TO.N,GND*%
X145961000Y-112004000D03*
%TO.P,C20,1*%
%TO.N,/IOVDD*%
X145961000Y-110704000D03*
%TD*%
D16*
%TO.P,C19,2*%
%TO.N,/AGND*%
X137691000Y-106274000D03*
%TO.P,C19,1*%
%TO.N,/AVDD*%
X138991000Y-106274000D03*
%TD*%
%TO.P,C18,2*%
%TO.N,/AGND*%
X137691000Y-103734000D03*
%TO.P,C18,1*%
%TO.N,/AVDD*%
X138991000Y-103734000D03*
%TD*%
%TO.P,C17,2*%
%TO.N,/AGND*%
X137691000Y-101194000D03*
%TO.P,C17,1*%
%TO.N,/AVDD*%
X138991000Y-101194000D03*
%TD*%
D17*
%TO.P,C16,2*%
%TO.N,GND*%
X146231000Y-92350000D03*
%TO.P,C16,1*%
%TO.N,/CVDD*%
X146231000Y-93650000D03*
%TD*%
D16*
%TO.P,C15,2*%
%TO.N,GND*%
X154231000Y-101194000D03*
%TO.P,C15,1*%
%TO.N,/CVDD*%
X152931000Y-101194000D03*
%TD*%
D17*
%TO.P,C14,2*%
%TO.N,GND*%
X147231000Y-113274000D03*
%TO.P,C14,1*%
%TO.N,/CVDD*%
X147231000Y-111974000D03*
%TD*%
%TO.P,C13,2*%
%TO.N,GND*%
X144691000Y-112004000D03*
%TO.P,C13,1*%
%TO.N,/CVDD*%
X144691000Y-110704000D03*
%TD*%
D16*
%TO.P,C12,1*%
%TO.N,Net-(C12-Pad1)*%
X136451000Y-110000000D03*
%TO.P,C12,2*%
%TO.N,/AGND*%
X135151000Y-110000000D03*
%TD*%
D17*
%TO.P,C11,2*%
%TO.N,/AGND*%
X134531000Y-98003600D03*
%TO.P,C11,1*%
%TO.N,Net-(C11-Pad1)*%
X134531000Y-99303600D03*
%TD*%
%TO.P,C10,2*%
%TO.N,/AGND*%
X135801000Y-98003600D03*
%TO.P,C10,1*%
%TO.N,Net-(C10-Pad1)*%
X135801000Y-99303600D03*
%TD*%
D16*
%TO.P,C9,2*%
%TO.N,/AGND*%
X138991000Y-105004000D03*
%TO.P,C9,1*%
%TO.N,Net-(C9-Pad1)*%
X137691000Y-105004000D03*
%TD*%
D17*
%TO.P,C8,2*%
%TO.N,GND*%
X161201000Y-105654000D03*
%TO.P,C8,1*%
%TO.N,Net-(C8-Pad1)*%
X161201000Y-104354000D03*
%TD*%
%TO.P,C7,2*%
%TO.N,GND*%
X158661000Y-96733600D03*
%TO.P,C7,1*%
%TO.N,/CVDD*%
X158661000Y-98033600D03*
%TD*%
D21*
%TO.P,C6,A*%
%TO.N,/IOVDD*%
X154851000Y-111224000D03*
%TO.P,C6,C*%
%TO.N,GND*%
X154851000Y-114024000D03*
%TD*%
D17*
%TO.P,C5,2*%
%TO.N,GND*%
X152311000Y-113274000D03*
%TO.P,C5,1*%
%TO.N,/IOVDD*%
X152311000Y-111974000D03*
%TD*%
D21*
%TO.P,C4,A*%
%TO.N,/CVDD*%
X156121000Y-98783600D03*
%TO.P,C4,C*%
%TO.N,GND*%
X156121000Y-95983600D03*
%TD*%
D17*
%TO.P,C3,2*%
%TO.N,GND*%
X161201000Y-103114000D03*
%TO.P,C3,1*%
%TO.N,Net-(C3-Pad1)*%
X161201000Y-101814000D03*
%TD*%
D16*
%TO.P,C2,2*%
%TO.N,/AGND*%
X130071000Y-101194000D03*
%TO.P,C2,1*%
%TO.N,/AVDD*%
X131371000Y-101194000D03*
%TD*%
D22*
%TO.P,C1,A*%
%TO.N,/AVDD*%
X132121000Y-103734000D03*
%TO.P,C1,C*%
%TO.N,/AGND*%
X129321000Y-103734000D03*
%TD*%
D23*
%TO.N,/AVDD*%
X140240000Y-104507000D03*
X137500000Y-108000000D03*
X132246000Y-105939000D03*
%TO.N,/IOVDD*%
X151946000Y-102789000D03*
X146491000Y-109733000D03*
X144687000Y-112966000D03*
X145742000Y-101173000D03*
D24*
X150842000Y-97715200D03*
D23*
%TO.N,GND*%
X155213000Y-101403000D03*
%TO.N,/CVDD*%
X145052000Y-109668000D03*
X146843000Y-114562000D03*
D25*
X150096000Y-114562000D03*
D23*
X150406000Y-109955000D03*
X149987000Y-99239100D03*
%TO.N,/LINEIN*%
X137691000Y-114000000D03*
%TO.N,/RX*%
X147814000Y-100691000D03*
%TO.N,/TX*%
X149165000Y-97824700D03*
%TO.N,/BSYNC*%
X151108000Y-107140000D03*
%TO.N,/GPIO3*%
X148501000Y-109646000D03*
%TO.N,/GPIO2*%
X146558000Y-106790000D03*
D24*
%TO.N,/DREQ*%
X147297000Y-110373000D03*
D23*
%TO.N,/CS*%
X146206000Y-104634000D03*
%TO.N,/SCLK*%
X153493000Y-91335800D03*
%TO.N,/GPIO0*%
X144464000Y-95724400D03*
%TO.N,/LEFT*%
X142000000Y-108000000D03*
X143180000Y-105484000D03*
%TO.N,/GBUF*%
X139942000Y-103177000D03*
X133475000Y-100544000D03*
%TO.N,/RIGHT*%
X136986000Y-100227000D03*
X139859000Y-102166000D03*
%TO.N,/VCC*%
X151459000Y-93981700D03*
%TO.N,/GPIO6*%
X154132000Y-108214000D03*
%TO.N,/GPIO7*%
X153187000Y-108952000D03*
%TO.N,/VCO*%
X154067000Y-104874000D03*
%TO.N,/GPIO5*%
X152203000Y-100079000D03*
%TO.N,/GPIO4*%
X142946000Y-98282400D03*
%TO.N,/PWR_FLAG*%
X146546000Y-103632000D03*
X145092000Y-101937000D03*
%TO.N,Net-(C8-Pad1)*%
X152444000Y-104317000D03*
X155548000Y-105841000D03*
%TO.N,Net-(C9-Pad1)*%
X143420000Y-104090000D03*
X136000000Y-104000000D03*
%TO.N,Net-(C10-Pad1)*%
X133822000Y-103744000D03*
X132738000Y-96525400D03*
X137186000Y-96525400D03*
X137186000Y-99205600D03*
%TD*%
D26*
%TO.N,/AVDD*%
X138991000Y-106274000D02*
X138991000Y-107049300D01*
X137500000Y-108000000D02*
X138450700Y-107049300D01*
X138450700Y-107049300D02*
X138991000Y-107049300D01*
X132121000Y-103734000D02*
X132121000Y-104859300D01*
X132246000Y-105939000D02*
X132246000Y-104984300D01*
X132246000Y-104984300D02*
X132121000Y-104859300D01*
X132121000Y-103734000D02*
X132121000Y-102609000D01*
X132121000Y-102609000D02*
X131482000Y-101969000D01*
X131482000Y-101969000D02*
X131371000Y-101969000D01*
X131371000Y-101969000D02*
X131371000Y-101194000D01*
X130825000Y-106894000D02*
X131525300Y-106894000D01*
X132246000Y-105939000D02*
X131525300Y-106659700D01*
X131525300Y-106659700D02*
X131525300Y-106894000D01*
X138991000Y-103540000D02*
X138991000Y-101194000D01*
X138991000Y-103734000D02*
X138991000Y-103540000D01*
X140814000Y-103984000D02*
X141711000Y-103984000D01*
X138991000Y-103540000D02*
X139435000Y-103984000D01*
X139435000Y-103984000D02*
X140814000Y-103984000D01*
X140814000Y-103984000D02*
X140814000Y-104507000D01*
X140240000Y-104507000D02*
X140814000Y-104507000D01*
X141711000Y-104984000D02*
X140814000Y-104984000D01*
X140814000Y-104984000D02*
X140814000Y-104507000D01*
X138991000Y-101194000D02*
X139666000Y-101194000D01*
X139666000Y-101194000D02*
X139913000Y-101440000D01*
X139913000Y-101440000D02*
X140771000Y-101440000D01*
X140771000Y-101440000D02*
X140814000Y-101484000D01*
X140814000Y-101484000D02*
X141711000Y-101484000D01*
%TO.N,/AGND*%
X137691000Y-106274000D02*
X137015700Y-106274000D01*
X137015700Y-106274000D02*
X136289700Y-107000000D01*
X136289700Y-107000000D02*
X134983300Y-107000000D01*
X139754300Y-105092300D02*
X139754300Y-105220200D01*
X139754300Y-105220200D02*
X139475800Y-105498700D01*
X139475800Y-105498700D02*
X138466300Y-105498700D01*
X138466300Y-105498700D02*
X137691000Y-106274000D01*
X135151000Y-110000000D02*
X135151000Y-109224700D01*
X134983300Y-107000000D02*
X134983300Y-109057000D01*
X134983300Y-109057000D02*
X135151000Y-109224700D01*
X134661900Y-107000000D02*
X134983300Y-107000000D01*
X135151000Y-112000000D02*
X135151000Y-110000000D01*
X135151000Y-112000000D02*
X135151000Y-112801000D01*
X135151000Y-112801000D02*
X140000000Y-117650000D01*
X141711000Y-105984000D02*
X140646000Y-105984000D01*
X140646000Y-105984000D02*
X139754300Y-105092300D01*
X139754300Y-105092300D02*
X139666000Y-105004000D01*
X139666000Y-105004000D02*
X138991000Y-105004000D01*
X129321000Y-103734000D02*
X129321000Y-104859300D01*
X129175000Y-107544000D02*
X129875300Y-107544000D01*
X129875300Y-107544000D02*
X129875300Y-105413600D01*
X129875300Y-105413600D02*
X129321000Y-104859300D01*
X137691000Y-101194000D02*
X137691000Y-103734000D01*
X142608000Y-102984000D02*
X141711000Y-102984000D01*
X142608000Y-102484000D02*
X142608000Y-102984000D01*
X138521000Y-100364000D02*
X137691000Y-101194000D01*
X130071000Y-101194000D02*
X133261000Y-98003600D01*
X133261000Y-98003600D02*
X134531000Y-98003600D01*
X138119000Y-97482700D02*
X138119000Y-94259300D01*
X138119000Y-94259300D02*
X142151000Y-90227300D01*
X142151000Y-90227300D02*
X142151000Y-87963400D01*
X142151000Y-87963400D02*
X143396000Y-86718400D01*
X143396000Y-86718400D02*
X156164000Y-86718400D01*
X156164000Y-86718400D02*
X157391000Y-87945800D01*
X157391000Y-87945800D02*
X157391000Y-89014200D01*
X157391000Y-89014200D02*
X164491000Y-96114000D01*
X164491000Y-96114000D02*
X168821000Y-96114000D01*
X141711000Y-105984000D02*
X142608000Y-105984000D01*
X142608000Y-105984000D02*
X142608000Y-106175000D01*
X142608000Y-106175000D02*
X142666000Y-106233000D01*
X142666000Y-106233000D02*
X143508000Y-106233000D01*
X143508000Y-106233000D02*
X144198000Y-105543000D01*
X144198000Y-105543000D02*
X144198000Y-103828000D01*
X144198000Y-103828000D02*
X143354000Y-102984000D01*
X143354000Y-102984000D02*
X142608000Y-102984000D01*
X141711000Y-100984000D02*
X140814000Y-100984000D01*
X140814000Y-100984000D02*
X140194000Y-100364000D01*
X140194000Y-100364000D02*
X138521000Y-100364000D01*
X141711000Y-100984000D02*
X142608000Y-100984000D01*
X142608000Y-100984000D02*
X142608000Y-102484000D01*
X141711000Y-102484000D02*
X142608000Y-102484000D01*
X134531000Y-98003600D02*
X135801000Y-98003600D01*
X129321000Y-103734000D02*
X129321000Y-102609000D01*
X129321000Y-102609000D02*
X129960000Y-101969000D01*
X129960000Y-101969000D02*
X130071000Y-101969000D01*
X130071000Y-101969000D02*
X130071000Y-101194000D01*
X135801000Y-98003600D02*
X136189000Y-98003600D01*
X136189000Y-98003600D02*
X136710000Y-97482700D01*
X136710000Y-97482700D02*
X138119000Y-97482700D01*
X138119000Y-97482700D02*
X138521000Y-97885400D01*
X138521000Y-97885400D02*
X138521000Y-100364000D01*
%TO.N,/IOVDD*%
X157711000Y-111323900D02*
X157711000Y-110399000D01*
X157711000Y-110399000D02*
X157511000Y-110199000D01*
X157511000Y-110199000D02*
X154851000Y-110199000D01*
X157711000Y-111324000D02*
X157711000Y-111323900D01*
X145711000Y-105984000D02*
X145711000Y-107984000D01*
X150211000Y-105984000D02*
X145711000Y-105984000D01*
X151946000Y-102789000D02*
X151251000Y-103484000D01*
X151251000Y-103484000D02*
X150211000Y-103484000D01*
X145742000Y-101173000D02*
X145817000Y-101248000D01*
X145817000Y-101248000D02*
X145817000Y-102389000D01*
X145817000Y-102389000D02*
X145327000Y-102880000D01*
X145327000Y-102880000D02*
X145327000Y-105600000D01*
X145327000Y-105600000D02*
X145711000Y-105984000D01*
X145961000Y-110704000D02*
X145961000Y-110029000D01*
X145961000Y-110029000D02*
X146257000Y-109733000D01*
X146257000Y-109733000D02*
X146491000Y-109733000D01*
X143421000Y-112004000D02*
X143421000Y-112679000D01*
X143421000Y-112679000D02*
X144400000Y-112679000D01*
X144400000Y-112679000D02*
X144687000Y-112966000D01*
X152311000Y-111974000D02*
X153086000Y-111974000D01*
X153086000Y-111974000D02*
X153086000Y-111864000D01*
X153086000Y-111864000D02*
X153726000Y-111224000D01*
X153726000Y-111224000D02*
X154851000Y-111224000D01*
X154851000Y-111224000D02*
X154851000Y-110199000D01*
X152931000Y-106274000D02*
X152256000Y-106274000D01*
X152256000Y-106274000D02*
X151966000Y-105984000D01*
X151966000Y-105984000D02*
X150211000Y-105984000D01*
X152931000Y-102464000D02*
X152256000Y-102464000D01*
X152256000Y-102464000D02*
X152256000Y-102479000D01*
X152256000Y-102479000D02*
X151946000Y-102789000D01*
X145211000Y-99484000D02*
X145211000Y-100642000D01*
X145211000Y-100642000D02*
X145742000Y-101173000D01*
X154857000Y-107607000D02*
X154857000Y-110193000D01*
X154857000Y-110193000D02*
X154851000Y-110199000D01*
X154739000Y-107489000D02*
X154857000Y-107607000D01*
X152931000Y-106274000D02*
X154146000Y-107489000D01*
X154146000Y-107489000D02*
X154739000Y-107489000D01*
X150842000Y-97715200D02*
X150842000Y-97597000D01*
X150842000Y-97597000D02*
X151000000Y-97438900D01*
X151000000Y-97438900D02*
X151000000Y-96763600D01*
%TO.N,GND*%
X142718200Y-122623200D02*
X142552800Y-122788600D01*
X142552800Y-122788600D02*
X135244400Y-122788600D01*
X135244400Y-122788600D02*
X132750000Y-120294200D01*
X132750000Y-120294200D02*
X132750000Y-111000000D01*
X142718200Y-122623200D02*
X142926000Y-122831000D01*
X142926000Y-122831000D02*
X157344000Y-122831000D01*
X157344000Y-122831000D02*
X158661000Y-121514000D01*
X146456000Y-113274000D02*
X146118000Y-113612000D01*
X146118000Y-113612000D02*
X146118000Y-117028000D01*
X146118000Y-117028000D02*
X142151000Y-120995000D01*
X142151000Y-120995000D02*
X142151000Y-122056000D01*
X142151000Y-122056000D02*
X142718200Y-122623200D01*
X132750000Y-111000000D02*
X132750000Y-110274700D01*
X133838100Y-107000000D02*
X133195300Y-107000000D01*
X133195300Y-107000000D02*
X133195300Y-109829400D01*
X133195300Y-109829400D02*
X132750000Y-110274700D01*
X158661000Y-113924100D02*
X158661000Y-113924000D01*
X158661000Y-114049000D02*
X158661000Y-113924100D01*
X165627000Y-108780000D02*
X162180000Y-112226000D01*
X162180000Y-112226000D02*
X162180000Y-112734000D01*
X162180000Y-112734000D02*
X160064000Y-114850000D01*
X160064000Y-114850000D02*
X159201000Y-114850000D01*
X159201000Y-114850000D02*
X158661000Y-114309000D01*
X158661000Y-114309000D02*
X158661000Y-114049000D01*
X166931000Y-104228000D02*
X165137000Y-104228000D01*
X165137000Y-104228000D02*
X164956000Y-104410000D01*
X164956000Y-104410000D02*
X164956000Y-108108000D01*
X164956000Y-108108000D02*
X165068000Y-108221000D01*
X165068000Y-108221000D02*
X165627000Y-108780000D01*
X145961000Y-112004000D02*
X145961000Y-112779000D01*
X145961000Y-112779000D02*
X146456000Y-113274000D01*
X144691000Y-112004000D02*
X145961000Y-112004000D01*
X161201000Y-105654000D02*
X161201000Y-106329000D01*
X161201000Y-106329000D02*
X160192000Y-107338000D01*
X160192000Y-107338000D02*
X158311000Y-107338000D01*
X161976000Y-103114000D02*
X161976000Y-104879000D01*
X161976000Y-104879000D02*
X161201000Y-105654000D01*
X158661000Y-96395900D02*
X161976000Y-99711200D01*
X161976000Y-99711200D02*
X161976000Y-103114000D01*
X158661000Y-96733600D02*
X158661000Y-96395900D01*
X166931000Y-104228000D02*
X166931000Y-105004000D01*
X169400000Y-99923600D02*
X170098000Y-100622000D01*
X170098000Y-100622000D02*
X170098000Y-101748000D01*
X170098000Y-101748000D02*
X169381000Y-102464000D01*
X169381000Y-102464000D02*
X168279000Y-102464000D01*
X168279000Y-102464000D02*
X166931000Y-103812000D01*
X166931000Y-103812000D02*
X166931000Y-104228000D01*
X166931000Y-99923600D02*
X169400000Y-99923600D01*
X158661000Y-118069000D02*
X155641000Y-115049000D01*
X155641000Y-115049000D02*
X154851000Y-115049000D01*
X154851000Y-115049000D02*
X154851000Y-114024000D01*
X158661000Y-121514000D02*
X158661000Y-118069000D01*
X154231000Y-101403000D02*
X154231000Y-102464000D01*
X154231000Y-101194000D02*
X154231000Y-101403000D01*
X155213000Y-101403000D02*
X154231000Y-101403000D01*
X154231000Y-106274000D02*
X154906000Y-106274000D01*
X154906000Y-106274000D02*
X155971000Y-107338000D01*
X155971000Y-107338000D02*
X158311000Y-107338000D01*
X147231000Y-113274000D02*
X148006000Y-113274000D01*
X148006000Y-113274000D02*
X148006000Y-113063000D01*
X148006000Y-113063000D02*
X148446000Y-112624000D01*
X148446000Y-112624000D02*
X149121000Y-112624000D01*
X147231000Y-113274000D02*
X146456000Y-113274000D01*
X154851000Y-114024000D02*
X154851000Y-112999000D01*
X154851000Y-112999000D02*
X155470000Y-112380000D01*
X155470000Y-112380000D02*
X158011000Y-112380000D01*
X158011000Y-112380000D02*
X158311000Y-112080000D01*
X158311000Y-112080000D02*
X158311000Y-107338000D01*
X158661000Y-118069000D02*
X158661000Y-114049000D01*
X154851000Y-114024000D02*
X152817000Y-114024000D01*
X152817000Y-114024000D02*
X152311000Y-113518000D01*
X152311000Y-113518000D02*
X152311000Y-113274000D01*
X149121000Y-111354000D02*
X149121000Y-112624000D01*
X161201000Y-103114000D02*
X161976000Y-103114000D01*
X156121000Y-95983600D02*
X157279000Y-95983600D01*
X157279000Y-95983600D02*
X157354000Y-96058300D01*
X157354000Y-96058300D02*
X158661000Y-96058300D01*
X158661000Y-96058300D02*
X158661000Y-96395900D01*
X165627000Y-108780000D02*
X166931000Y-110084000D01*
X169400000Y-99923600D02*
X170149000Y-99174200D01*
X170149000Y-99174200D02*
X170149000Y-98118800D01*
X170149000Y-98118800D02*
X169414000Y-97383600D01*
X169414000Y-97383600D02*
X166931000Y-97383600D01*
X144186000Y-93650000D02*
X144186000Y-94239600D01*
X144186000Y-94239600D02*
X142775000Y-95650000D01*
X142775000Y-95650000D02*
X142000000Y-95650000D01*
X144961000Y-93650000D02*
X144186000Y-93650000D01*
X149771000Y-87188000D02*
X149771000Y-89585300D01*
X149771000Y-89585300D02*
X147006000Y-92350000D01*
X147006000Y-92350000D02*
X146231000Y-92350000D01*
X144691000Y-87965900D02*
X145469000Y-87188000D01*
X145469000Y-87188000D02*
X147231000Y-87188000D01*
X147231000Y-87188000D02*
X149771000Y-87188000D01*
X147231000Y-87188000D02*
X147231000Y-89016900D01*
X147231000Y-89016900D02*
X145342000Y-90905900D01*
X145342000Y-90905900D02*
X145053000Y-90905900D01*
X145053000Y-90905900D02*
X144186000Y-91773100D01*
X144186000Y-91773100D02*
X144186000Y-93650000D01*
X149771000Y-87188000D02*
X154067000Y-87188000D01*
X154067000Y-87188000D02*
X154851000Y-87971700D01*
X154851000Y-87971700D02*
X154851000Y-90584100D01*
X154851000Y-90584100D02*
X154851000Y-90734200D01*
X154851000Y-90584100D02*
X157354000Y-90584100D01*
X157354000Y-90584100D02*
X163335000Y-96564400D01*
X163335000Y-96564400D02*
X166112000Y-96564400D01*
X166112000Y-96564400D02*
X166931000Y-97383600D01*
X157354000Y-96058300D02*
X157354000Y-96780800D01*
X157354000Y-96780800D02*
X156876000Y-97258900D01*
X156876000Y-97258900D02*
X153000000Y-97258900D01*
X153000000Y-97258900D02*
X153000000Y-96558600D01*
%TO.N,/CVDD*%
X152931000Y-100806000D02*
X151286000Y-100806000D01*
X151286000Y-100806000D02*
X151108000Y-100984000D01*
X151108000Y-100984000D02*
X150211000Y-100984000D01*
X152931000Y-101194000D02*
X152931000Y-100806000D01*
X150096000Y-114562000D02*
X146843000Y-114562000D01*
X145052000Y-109668000D02*
X145211000Y-109509000D01*
X145211000Y-109509000D02*
X145211000Y-108881000D01*
X146211000Y-107984000D02*
X146211000Y-108768000D01*
X146211000Y-108768000D02*
X146098000Y-108881000D01*
X146098000Y-108881000D02*
X145211000Y-108881000D01*
X147231000Y-111974000D02*
X147231000Y-111299000D01*
X147231000Y-111299000D02*
X147396000Y-111299000D01*
X147396000Y-111299000D02*
X148234000Y-110461000D01*
X148234000Y-110461000D02*
X149900000Y-110461000D01*
X149900000Y-110461000D02*
X150406000Y-109955000D01*
X145211000Y-108881000D02*
X145211000Y-107984000D01*
X144691000Y-110704000D02*
X144691000Y-110029000D01*
X144691000Y-110029000D02*
X145052000Y-109668000D01*
X158661000Y-98033600D02*
X158661000Y-98708900D01*
X158661000Y-98708900D02*
X158586000Y-98783600D01*
X158586000Y-98783600D02*
X156121000Y-98783600D01*
X156121000Y-98783600D02*
X154996000Y-98783600D01*
X154996000Y-98783600D02*
X154870000Y-98908900D01*
X154870000Y-98908900D02*
X153650000Y-98908900D01*
X153650000Y-98908900D02*
X153650000Y-99700000D01*
X153650000Y-99700000D02*
X152931000Y-100419000D01*
X152931000Y-100419000D02*
X152931000Y-100806000D01*
X149987000Y-99239100D02*
X153320000Y-99239100D01*
X153320000Y-99239100D02*
X153650000Y-98908900D01*
X153650000Y-98208600D02*
X153650000Y-98908900D01*
X145711000Y-99484000D02*
X145711000Y-100381000D01*
X145711000Y-100381000D02*
X145976000Y-100381000D01*
X145976000Y-100381000D02*
X147011000Y-101416000D01*
X147011000Y-101416000D02*
X148115000Y-101416000D01*
X148115000Y-101416000D02*
X148547000Y-100984000D01*
X148547000Y-100984000D02*
X150211000Y-100984000D01*
X145711000Y-99484000D02*
X145711000Y-94845300D01*
X145711000Y-94845300D02*
X146231000Y-94325300D01*
X146231000Y-94325300D02*
X146231000Y-93650000D01*
%TO.N,/LINEIN*%
X137691000Y-112000000D02*
X137126300Y-112000000D01*
X137691000Y-114000000D02*
X137691000Y-112000000D01*
X136451000Y-112000000D02*
X137126300Y-112000000D01*
%TO.N,/MICP*%
X141000000Y-114650000D02*
X141000000Y-115325300D01*
X140000000Y-116350000D02*
X140000000Y-115674700D01*
X140000000Y-115674700D02*
X140349400Y-115325300D01*
X140349400Y-115325300D02*
X141000000Y-115325300D01*
X135801000Y-121514000D02*
X138872300Y-118442700D01*
X138872300Y-118442700D02*
X140542400Y-118442700D01*
X140542400Y-118442700D02*
X140775400Y-118209700D01*
X140775400Y-118209700D02*
X140775400Y-117125400D01*
X140775400Y-117125400D02*
X140000000Y-116350000D01*
%TO.N,/RX*%
X147814000Y-100691000D02*
X148124000Y-100381000D01*
X148124000Y-100381000D02*
X148211000Y-100381000D01*
X148211000Y-100381000D02*
X148211000Y-99484000D01*
X148211000Y-99484000D02*
X148211000Y-98587200D01*
X148211000Y-98587200D02*
X149447000Y-98587200D01*
X149447000Y-98587200D02*
X149593000Y-98440500D01*
X149593000Y-98440500D02*
X151142000Y-98440500D01*
X151142000Y-98440500D02*
X151775000Y-97807500D01*
X151775000Y-97807500D02*
X151775000Y-96239000D01*
X151775000Y-96239000D02*
X151000000Y-95463600D01*
%TO.N,/TX*%
X147711000Y-99484000D02*
X147711000Y-98396300D01*
X147711000Y-98396300D02*
X148283000Y-97824700D01*
X148283000Y-97824700D02*
X149165000Y-97824700D01*
%TO.N,/BSYNC*%
X150211000Y-106484000D02*
X151108000Y-106484000D01*
X151108000Y-106484000D02*
X151108000Y-107140000D01*
%TO.N,/GPIO3*%
X147711000Y-107984000D02*
X147711000Y-108881000D01*
X147711000Y-108881000D02*
X148476000Y-109646000D01*
X148476000Y-109646000D02*
X148501000Y-109646000D01*
X150421000Y-111354000D02*
X151096000Y-111354000D01*
X151096000Y-111354000D02*
X151272000Y-111529000D01*
X151272000Y-111529000D02*
X151272000Y-118743000D01*
X151272000Y-118743000D02*
X148501000Y-121514000D01*
%TO.N,/GPIO2*%
X145961000Y-121514000D02*
X150821000Y-116654000D01*
X150821000Y-116654000D02*
X150821000Y-113800000D01*
X150821000Y-113800000D02*
X150421000Y-113399000D01*
X150421000Y-113399000D02*
X150421000Y-112624000D01*
X147211000Y-107984000D02*
X147211000Y-107087000D01*
X147211000Y-107087000D02*
X146855000Y-107087000D01*
X146855000Y-107087000D02*
X146558000Y-106790000D01*
%TO.N,/DREQ*%
X146711000Y-107984000D02*
X146711000Y-108881000D01*
X146711000Y-108881000D02*
X147297000Y-109466000D01*
X147297000Y-109466000D02*
X147297000Y-110373000D01*
%TO.N,/RESET*%
X143421000Y-110704000D02*
X142608000Y-111517000D01*
X142608000Y-111517000D02*
X142608000Y-119787000D01*
X142608000Y-119787000D02*
X140881000Y-121514000D01*
X143421000Y-110704000D02*
X144211000Y-109914000D01*
X144211000Y-109914000D02*
X144211000Y-107984000D01*
%TO.N,/MICN*%
X138341000Y-121514000D02*
X142142000Y-117713000D01*
X142142000Y-117713000D02*
X142142000Y-110691000D01*
X142142000Y-110691000D02*
X143711000Y-109122000D01*
X143711000Y-109122000D02*
X143711000Y-107984000D01*
%TO.N,/CS*%
X146206000Y-104634000D02*
X145777000Y-104205000D01*
X145777000Y-104205000D02*
X145777000Y-103351000D01*
X145777000Y-103351000D02*
X146594000Y-102534000D01*
X146594000Y-102534000D02*
X147814000Y-102534000D01*
X147814000Y-102534000D02*
X148864000Y-101484000D01*
X148864000Y-101484000D02*
X150211000Y-101484000D01*
%TO.N,/SCLK*%
X153493000Y-91335800D02*
X153067000Y-91335800D01*
X153067000Y-91335800D02*
X147211000Y-97191800D01*
X147211000Y-97191800D02*
X147211000Y-99484000D01*
%TO.N,/SI*%
X153581000Y-88493600D02*
X153581000Y-89609900D01*
X153581000Y-89609900D02*
X146711000Y-96479900D01*
X146711000Y-96479900D02*
X146711000Y-99484000D01*
%TO.N,/SO*%
X151041000Y-88493600D02*
X151041000Y-90876100D01*
X151041000Y-90876100D02*
X146211000Y-95706100D01*
X146211000Y-95706100D02*
X146211000Y-99484000D01*
%TO.N,/GPIO0*%
X148501000Y-88493600D02*
X145320000Y-91674700D01*
X145320000Y-91674700D02*
X144961000Y-91674700D01*
X144961000Y-91674700D02*
X144961000Y-92350000D01*
X144464000Y-95724400D02*
X144711000Y-95970900D01*
X144711000Y-95970900D02*
X144711000Y-99484000D01*
%TO.N,/GPIO1*%
X144211000Y-99484000D02*
X144211000Y-98521900D01*
X144211000Y-98521900D02*
X143246000Y-97557100D01*
X143246000Y-97557100D02*
X142577000Y-97557100D01*
X142577000Y-97557100D02*
X141225000Y-96204700D01*
X141225000Y-96204700D02*
X141225000Y-95125400D01*
X141225000Y-95125400D02*
X142000000Y-94350000D01*
X145961000Y-88493600D02*
X142000000Y-92454600D01*
X142000000Y-92454600D02*
X142000000Y-94350000D01*
%TO.N,/LEFT*%
X138991000Y-110000000D02*
X139666300Y-110000000D01*
X142000000Y-108000000D02*
X141666300Y-108000000D01*
X141666300Y-108000000D02*
X139666300Y-110000000D01*
X141711000Y-105484000D02*
X143180000Y-105484000D01*
%TO.N,/GBUF*%
X141711000Y-103484000D02*
X140814000Y-103484000D01*
X140814000Y-103484000D02*
X140508000Y-103177000D01*
X140508000Y-103177000D02*
X139942000Y-103177000D01*
X134531000Y-100544000D02*
X133475000Y-100544000D01*
%TO.N,/RIGHT*%
X135801000Y-100544000D02*
X136576000Y-100544000D01*
X136576000Y-100544000D02*
X136893000Y-100227000D01*
X136893000Y-100227000D02*
X136986000Y-100227000D01*
X139859000Y-102166000D02*
X140040000Y-101984000D01*
X140040000Y-101984000D02*
X141711000Y-101984000D01*
%TO.N,/VCC*%
X129175000Y-108194000D02*
X128474700Y-108194000D01*
X128474700Y-106894000D02*
X128474700Y-108194000D01*
X128587300Y-106894000D02*
X128474700Y-106894000D01*
X129175000Y-106894000D02*
X128587300Y-106894000D01*
X129175000Y-108194000D02*
X129875300Y-108194000D01*
X130101000Y-111000000D02*
X130101000Y-108419700D01*
X130101000Y-108419700D02*
X129875300Y-108194000D01*
X135801000Y-88493600D02*
X128295600Y-95999000D01*
X128295600Y-95999000D02*
X128295600Y-106714900D01*
X128295600Y-106714900D02*
X128474700Y-106894000D01*
X159611000Y-113924000D02*
X159611000Y-113924100D01*
X159611000Y-113924000D02*
X159611000Y-112999000D01*
X159611000Y-112999000D02*
X159011000Y-112999000D01*
X157711000Y-113924000D02*
X157711000Y-113924100D01*
X157711000Y-113924000D02*
X157711000Y-112999000D01*
X157711000Y-112999000D02*
X159011000Y-112999000D01*
X153650000Y-96558600D02*
X153650000Y-95858300D01*
X152350000Y-96558600D02*
X152350000Y-95858300D01*
X153650000Y-95858300D02*
X154561000Y-94947700D01*
X154561000Y-94947700D02*
X158250000Y-94947700D01*
X158250000Y-94947700D02*
X162430000Y-99127200D01*
X162430000Y-99127200D02*
X162430000Y-105942000D01*
X162430000Y-105942000D02*
X159011000Y-109360000D01*
X159011000Y-109360000D02*
X159011000Y-112999000D01*
X153650000Y-95858300D02*
X152350000Y-95858300D01*
X152350000Y-95858300D02*
X152350000Y-94872400D01*
X152350000Y-94872400D02*
X151459000Y-93981700D01*
%TO.N,/GPIO6*%
X148211000Y-107984000D02*
X148211000Y-107087000D01*
X148211000Y-107087000D02*
X149670000Y-107087000D01*
X149670000Y-107087000D02*
X150797000Y-108214000D01*
X150797000Y-108214000D02*
X154132000Y-108214000D01*
X168821000Y-108814000D02*
X168821000Y-109471000D01*
X168821000Y-109471000D02*
X167433000Y-110859000D01*
X167433000Y-110859000D02*
X166406000Y-110859000D01*
X166406000Y-110859000D02*
X165631000Y-110084000D01*
%TO.N,/GPIO7*%
X148711000Y-107984000D02*
X148711000Y-108881000D01*
X148711000Y-108881000D02*
X153116000Y-108881000D01*
X153116000Y-108881000D02*
X153187000Y-108952000D01*
X165631000Y-105004000D02*
X166901000Y-106274000D01*
X166901000Y-106274000D02*
X168821000Y-106274000D01*
%TO.N,/VCO*%
X150211000Y-105484000D02*
X153457000Y-105484000D01*
X153457000Y-105484000D02*
X154067000Y-104874000D01*
%TO.N,/GPIO5*%
X148711000Y-99484000D02*
X148711000Y-100381000D01*
X148711000Y-100381000D02*
X151067000Y-100381000D01*
X151067000Y-100381000D02*
X151369000Y-100079000D01*
X151369000Y-100079000D02*
X152203000Y-100079000D01*
X168821000Y-101194000D02*
X166901000Y-101194000D01*
X166901000Y-101194000D02*
X165631000Y-99923600D01*
%TO.N,/GPIO4*%
X168821000Y-98654000D02*
X166901000Y-98654000D01*
X166901000Y-98654000D02*
X165631000Y-97383600D01*
X142946000Y-98282400D02*
X142946000Y-98321900D01*
X142946000Y-98321900D02*
X143211000Y-98587200D01*
X143211000Y-98587200D02*
X143211000Y-99484000D01*
%TO.N,Net-(LED1-PadA)*%
X131250000Y-111000000D02*
X131250000Y-111725300D01*
X131250000Y-111725300D02*
X131199900Y-111775400D01*
X131199900Y-111775400D02*
X129576400Y-111775400D01*
X129576400Y-111775400D02*
X128801000Y-111000000D01*
%TO.N,/PWR_FLAG*%
X148421000Y-103877000D02*
X148176000Y-103632000D01*
X148176000Y-103632000D02*
X146546000Y-103632000D01*
X150211000Y-104984000D02*
X149314000Y-104984000D01*
X149314000Y-104984000D02*
X149314000Y-104771000D01*
X149314000Y-104771000D02*
X148421000Y-103877000D01*
X150211000Y-102984000D02*
X149314000Y-102984000D01*
X149314000Y-102984000D02*
X148421000Y-103877000D01*
X144851000Y-101937000D02*
X143711000Y-100798000D01*
X143711000Y-100798000D02*
X143711000Y-99484000D01*
X150211000Y-101984000D02*
X151108000Y-101984000D01*
X151108000Y-101984000D02*
X151108000Y-102252000D01*
X151108000Y-102252000D02*
X150876000Y-102484000D01*
X144711000Y-107984000D02*
X144711000Y-102077000D01*
X144711000Y-102077000D02*
X144851000Y-101937000D01*
X144851000Y-101937000D02*
X145092000Y-101937000D01*
X150211000Y-102984000D02*
X151108000Y-102984000D01*
X151108000Y-102984000D02*
X151108000Y-102484000D01*
X151108000Y-102484000D02*
X150876000Y-102484000D01*
X150876000Y-102484000D02*
X150211000Y-102484000D01*
%TO.N,Net-(C3-Pad1)*%
X157511000Y-101884000D02*
X157511000Y-102522000D01*
X161201000Y-101814000D02*
X161201000Y-101139000D01*
X161201000Y-101139000D02*
X160671000Y-100609000D01*
X160671000Y-100609000D02*
X157511000Y-100609000D01*
X157511000Y-100609000D02*
X157511000Y-101884000D01*
X156121000Y-104384000D02*
X157346000Y-103159000D01*
X157346000Y-103159000D02*
X157511000Y-103159000D01*
X157511000Y-103159000D02*
X157511000Y-102522000D01*
X157511000Y-102522000D02*
X157398000Y-102409000D01*
X157398000Y-102409000D02*
X155497000Y-102409000D01*
X155497000Y-102409000D02*
X154956000Y-102950000D01*
X154956000Y-102950000D02*
X154956000Y-103078000D01*
X154956000Y-103078000D02*
X154452000Y-103581000D01*
X154452000Y-103581000D02*
X152020000Y-103581000D01*
X152020000Y-103581000D02*
X151617000Y-103984000D01*
X151617000Y-103984000D02*
X150211000Y-103984000D01*
%TO.N,Net-(C8-Pad1)*%
X159811000Y-105584000D02*
X159811000Y-106859000D01*
X159811000Y-106859000D02*
X156566000Y-106859000D01*
X156566000Y-106859000D02*
X155548000Y-105841000D01*
X161201000Y-104354000D02*
X160426000Y-104354000D01*
X160426000Y-104354000D02*
X160426000Y-104969000D01*
X160426000Y-104969000D02*
X159811000Y-105584000D01*
X150211000Y-104484000D02*
X152277000Y-104484000D01*
X152277000Y-104484000D02*
X152444000Y-104317000D01*
X156121000Y-103084000D02*
X155346000Y-103859000D01*
X155346000Y-103859000D02*
X155346000Y-105638000D01*
X155346000Y-105638000D02*
X155548000Y-105841000D01*
%TO.N,Net-(C9-Pad1)*%
X136000000Y-104000000D02*
X137004000Y-105004000D01*
X137004000Y-105004000D02*
X137691000Y-105004000D01*
X143420000Y-104090000D02*
X143026000Y-104484000D01*
X143026000Y-104484000D02*
X141711000Y-104484000D01*
%TO.N,Net-(C10-Pad1)*%
X137186000Y-96525400D02*
X132738000Y-96525400D01*
X135801000Y-99303600D02*
X137088000Y-99303600D01*
X137088000Y-99303600D02*
X137186000Y-99205600D01*
X133822000Y-103744000D02*
X134576000Y-103744000D01*
X134576000Y-103744000D02*
X135801000Y-102519000D01*
X135801000Y-102519000D02*
X135801000Y-101844000D01*
%TO.N,Net-(C11-Pad1)*%
X134531000Y-99303600D02*
X133682000Y-99303600D01*
X133682000Y-99303600D02*
X132746000Y-100240000D01*
X132746000Y-100240000D02*
X132746000Y-100876000D01*
X132746000Y-100876000D02*
X133714000Y-101844000D01*
X133714000Y-101844000D02*
X134531000Y-101844000D01*
%TO.N,Net-(C12-Pad1)*%
X136451000Y-110000000D02*
X137691000Y-110000000D01*
%TO.N,Net-(R12-Pad1)*%
X143211000Y-107984000D02*
X143211000Y-108880800D01*
X141000000Y-113350000D02*
X141000000Y-111091800D01*
X141000000Y-111091800D02*
X143211000Y-108880800D01*
%TO.N,Net-(R13-Pad1)*%
X138991000Y-112000000D02*
X139666300Y-112000000D01*
X139666300Y-112000000D02*
X139666300Y-111441900D01*
X139666300Y-111441900D02*
X142758600Y-108349600D01*
X142758600Y-108349600D02*
X142758600Y-107531600D01*
X142758600Y-107531600D02*
X141711000Y-106484000D01*
%TD*%
M02*
